<?xml version="1.0" encoding="utf-8"?>
<!-- Generator: Adobe Illustrator 23.0.1, SVG Export Plug-In . SVG Version: 6.00 Build 0)  -->
<svg version="1.1" id="Layer_1" xmlns="http://www.w3.org/2000/svg" xmlns:xlink="http://www.w3.org/1999/xlink" x="0px" y="0px"
	 viewBox="0 0 100 44" style="enable-background:new 0 0 100 44;" xml:space="preserve">
<style type="text/css">
	.st0{fill:#AFD91A;}
</style>
<g id="Infinity_Symbol_Stroke_1_">
	<g>
		<g>
			<path class="st0" d="M96.4,19.39c-0.07-0.56-0.16-1.11-0.27-1.67c-0.12-0.55-0.26-1.1-0.42-1.64c-0.32-1.08-0.75-2.14-1.26-3.15
				c-0.26-0.51-0.54-1-0.83-1.48c-0.08-0.12-0.15-0.24-0.23-0.36l-0.24-0.35c-0.16-0.23-0.32-0.46-0.49-0.69
				c-0.34-0.45-0.69-0.89-1.07-1.3c-0.37-0.42-0.76-0.82-1.16-1.2c-0.4-0.38-0.82-0.75-1.25-1.09l-0.16-0.13l-0.16-0.13
				c-0.11-0.08-0.22-0.17-0.33-0.25c-0.22-0.16-0.44-0.32-0.66-0.48c-0.89-0.62-1.82-1.16-2.77-1.65c-0.12-0.06-0.24-0.12-0.36-0.18
				c-0.12-0.06-0.24-0.12-0.36-0.17c-0.25-0.11-0.49-0.23-0.74-0.33c-0.5-0.21-1.01-0.4-1.53-0.58c-0.26-0.08-0.52-0.17-0.79-0.24
				c-0.13-0.04-0.26-0.08-0.4-0.11l-0.4-0.1C79.98,2,79.44,1.88,78.89,1.8l-0.2-0.03c-0.07-0.01-0.14-0.02-0.21-0.03l-0.41-0.05
				c-0.28-0.03-0.55-0.06-0.83-0.07L77.04,1.6l-0.1-0.01l-0.1,0l-0.41-0.02c-0.14,0-0.28,0-0.41-0.01l-0.21,0l-0.21,0
				c-1.1,0.02-2.18,0.13-3.24,0.32c-0.53,0.1-1.05,0.21-1.56,0.34c-0.51,0.13-1.01,0.28-1.5,0.44c-0.49,0.16-0.98,0.34-1.45,0.53
				c-0.24,0.09-0.47,0.19-0.7,0.29L66.8,3.65l-0.17,0.08l-0.17,0.08l-0.34,0.16l-0.33,0.16l-0.17,0.08L65.45,4.3l-0.33,0.17
				c-0.43,0.23-0.87,0.46-1.28,0.71c-0.84,0.48-1.65,1-2.43,1.52c-0.75,0.5-1.47,1.02-2.17,1.55c0.13,0.11,0.23,0.26,0.32,0.41
				c0.69-0.52,1.4-1.03,2.14-1.53c0.77-0.52,1.57-1.03,2.4-1.5c0.41-0.24,0.84-0.47,1.26-0.7l0.32-0.17l0.16-0.08l0.16-0.08
				l0.33-0.16l0.33-0.16l0.17-0.08l0.17-0.08l0.34-0.15c0.23-0.1,0.46-0.2,0.69-0.29c0.46-0.19,0.94-0.36,1.42-0.52
				c0.48-0.16,0.97-0.3,1.47-0.43c0.5-0.13,1.01-0.24,1.52-0.33c1.03-0.19,2.09-0.3,3.16-0.31l0.2,0l0.2,0c0.13,0,0.27,0,0.4,0.01
				l0.4,0.02l0.1,0l0.1,0.01l0.2,0.01c0.27,0.02,0.54,0.05,0.8,0.07l0.4,0.05c0.07,0.01,0.13,0.02,0.2,0.03l0.2,0.03
				c0.53,0.08,1.06,0.19,1.58,0.32l0.39,0.1c0.13,0.03,0.26,0.07,0.39,0.11c0.26,0.07,0.51,0.16,0.77,0.24
				c0.5,0.17,1,0.36,1.49,0.56c0.25,0.1,0.48,0.21,0.72,0.32c0.12,0.05,0.24,0.11,0.36,0.17c0.12,0.06,0.24,0.11,0.35,0.17
				c0.93,0.47,1.84,1,2.71,1.61c0.22,0.15,0.43,0.31,0.65,0.47c0.11,0.08,0.21,0.16,0.32,0.24l0.16,0.12l0.16,0.13
				c0.42,0.33,0.82,0.69,1.22,1.06c0.39,0.37,0.77,0.76,1.13,1.17c0.36,0.4,0.71,0.83,1.04,1.27c0.17,0.22,0.32,0.44,0.48,0.67
				l0.23,0.34c0.08,0.11,0.15,0.23,0.22,0.35c0.29,0.47,0.56,0.95,0.81,1.44c0.5,0.98,0.91,2.01,1.22,3.07
				c0.16,0.53,0.3,1.06,0.41,1.6c0.11,0.54,0.2,1.08,0.27,1.62c0.14,1.09,0.17,2.18,0.13,3.27c-0.04,1.09-0.18,2.17-0.38,3.23
				c-0.21,1.06-0.5,2.11-0.87,3.13c-0.74,2.03-1.77,3.96-3.09,5.69c-0.33,0.43-0.67,0.85-1.04,1.26c-0.36,0.41-0.74,0.8-1.14,1.17
				c-0.79,0.75-1.65,1.44-2.56,2.06c-0.45,0.31-0.93,0.59-1.41,0.86c-0.48,0.27-0.97,0.51-1.48,0.74c-1.01,0.44-2.05,0.81-3.12,1.07
				c-0.53,0.13-1.07,0.24-1.61,0.32c-0.13,0.02-0.27,0.04-0.41,0.06c-0.14,0.02-0.27,0.04-0.41,0.05L78.1,42.4l-0.41,0.03
				c-0.14,0.01-0.27,0.02-0.41,0.02l-0.2,0.01c-0.07,0-0.14,0-0.2,0.01c-0.14,0-0.27,0.01-0.41,0.01l-0.4,0
				c-0.14,0-0.27-0.01-0.4-0.01c-0.13,0-0.27-0.01-0.4-0.02l-0.4-0.02l-0.4-0.03c-2.13-0.2-4.18-0.71-6.1-1.43
				c-0.96-0.36-1.89-0.77-2.79-1.22l-0.33-0.17c-0.11-0.06-0.22-0.11-0.33-0.17l-0.33-0.18l-0.16-0.09l-0.16-0.09
				c-0.21-0.12-0.43-0.24-0.64-0.37c-0.21-0.13-0.42-0.25-0.63-0.38c-0.83-0.51-1.64-1.05-2.42-1.6c-0.78-0.55-1.54-1.12-2.27-1.7
				c-0.74-0.58-1.45-1.17-2.15-1.77c-0.7-0.6-1.38-1.21-2.05-1.82c-2.67-2.44-5.14-4.93-7.53-7.32c-0.61-0.61-1.22-1.22-1.82-1.82
				c1.07-1.05,2.15-2.12,3.26-3.21c0.4-0.39,0.8-0.78,1.2-1.18c0,0-0.01-0.01-0.01-0.01c-0.09-0.15-0.19-0.29-0.33-0.39
				c-0.41,0.41-0.82,0.81-1.23,1.21c-0.58,0.57-1.15,1.14-1.72,1.7c0,0.01,0,0.02-0.01,0.03c-0.08,0.1-0.18,0.18-0.28,0.26
				c-0.42,0.41-0.83,0.82-1.25,1.23c-0.02-0.02-0.05-0.05-0.07-0.07c0,0.01-0.01,0.02-0.02,0.03c-0.14,0.08-0.25,0.2-0.36,0.33
				c0.03,0.03,0.05,0.05,0.08,0.08c-1.03,1-2.04,1.98-3.04,2.93c-2.16,2.03-4.28,3.9-6.39,5.5c-1.05,0.8-2.1,1.53-3.14,2.18
				c-1.04,0.65-2.07,1.21-3.08,1.68c-0.51,0.23-1.01,0.44-1.51,0.62c-0.12,0.05-0.25,0.09-0.37,0.13c-0.12,0.04-0.25,0.08-0.37,0.12
				c-0.12,0.04-0.24,0.07-0.37,0.11c-0.12,0.04-0.24,0.07-0.36,0.1c-0.96,0.25-1.91,0.4-2.83,0.46c-0.92,0.06-1.82,0.02-2.67-0.09
				c-0.85-0.11-1.66-0.3-2.42-0.54c-0.09-0.03-0.19-0.06-0.28-0.09c-0.09-0.03-0.19-0.06-0.28-0.1c-0.18-0.07-0.36-0.14-0.54-0.21
				c-0.17-0.08-0.35-0.15-0.52-0.23c-0.04-0.02-0.08-0.04-0.13-0.06c-0.04-0.02-0.08-0.04-0.12-0.06c-0.08-0.04-0.17-0.08-0.25-0.12
				c-0.65-0.33-1.24-0.7-1.78-1.09c-0.54-0.39-1.01-0.79-1.45-1.19c-0.1-0.1-0.21-0.21-0.31-0.31c-0.05-0.05-0.1-0.1-0.15-0.15
				c-0.05-0.05-0.09-0.1-0.14-0.15c-0.09-0.1-0.19-0.2-0.28-0.3c-0.09-0.1-0.17-0.2-0.25-0.3c-0.66-0.79-1.13-1.53-1.47-2.14
				c-0.02-0.04-0.04-0.08-0.06-0.11c-0.02-0.04-0.04-0.07-0.06-0.11c-0.04-0.07-0.07-0.15-0.11-0.22c-0.04-0.07-0.07-0.14-0.1-0.2
				c-0.03-0.06-0.07-0.13-0.09-0.19c-0.05-0.12-0.1-0.24-0.15-0.34c-0.05-0.1-0.09-0.2-0.12-0.28c-0.13-0.34-0.2-0.51-0.2-0.51l0,0
				c0,0-0.02-0.05-0.05-0.13c-0.02-0.04-0.03-0.1-0.06-0.17c-0.02-0.07-0.05-0.14-0.08-0.23c-0.03-0.09-0.06-0.19-0.09-0.3
				c-0.01-0.03-0.02-0.06-0.03-0.08C8.31,26.06,8.3,26.03,8.29,26c-0.02-0.06-0.03-0.12-0.05-0.19c-0.02-0.07-0.04-0.13-0.06-0.2
				c-0.02-0.07-0.03-0.14-0.05-0.22c-0.02-0.08-0.04-0.15-0.06-0.24c-0.02-0.08-0.03-0.17-0.05-0.25C8.02,24.86,8.01,24.81,8,24.77
				c-0.01-0.04-0.02-0.09-0.02-0.14c-0.02-0.09-0.03-0.19-0.05-0.28c-0.02-0.1-0.03-0.2-0.04-0.3c-0.01-0.05-0.01-0.1-0.02-0.16
				c-0.01-0.05-0.01-0.11-0.02-0.16c-0.05-0.43-0.08-0.9-0.08-1.41c-0.01-1.02,0.11-2.18,0.44-3.45c0.17-0.63,0.4-1.29,0.69-1.96
				c0.04-0.08,0.08-0.17,0.11-0.25c0.02-0.04,0.04-0.08,0.06-0.13c0.02-0.04,0.04-0.08,0.06-0.13c0.04-0.08,0.08-0.17,0.12-0.25
				c0.04-0.08,0.09-0.17,0.13-0.25c0.02-0.04,0.04-0.08,0.07-0.13c0.02-0.04,0.05-0.08,0.07-0.13c0.05-0.08,0.09-0.17,0.15-0.25
				c0.05-0.08,0.1-0.17,0.15-0.25l0.04-0.06l0.04-0.06c0.03-0.04,0.05-0.08,0.08-0.13c0.11-0.17,0.23-0.33,0.34-0.5
				c0.12-0.16,0.24-0.33,0.37-0.5c0.06-0.08,0.13-0.17,0.2-0.25c0.07-0.08,0.13-0.16,0.2-0.24c0.07-0.08,0.14-0.16,0.21-0.24
				c0.03-0.04,0.07-0.08,0.11-0.12c0.04-0.04,0.07-0.08,0.11-0.12c0.3-0.32,0.61-0.63,0.94-0.93c0.34-0.3,0.69-0.59,1.06-0.86
				c0.37-0.28,0.76-0.54,1.17-0.78c0.41-0.24,0.84-0.47,1.28-0.67c0.88-0.41,1.83-0.73,2.83-0.94c0.5-0.1,1.01-0.18,1.52-0.22
				c0.06-0.01,0.13-0.01,0.19-0.02c0.06,0,0.13-0.01,0.19-0.01c0.06,0,0.13-0.01,0.2-0.01c0.07,0,0.13,0,0.2,0c0.07,0,0.13,0,0.2,0
				c0.07,0,0.13,0,0.2,0c0.07,0,0.13,0,0.2,0l0.05,0l0.05,0l0.1,0.01c0.14,0.01,0.28,0.01,0.41,0.02c0.07,0,0.14,0.01,0.21,0.02
				c0.07,0.01,0.14,0.01,0.21,0.02c0.28,0.02,0.56,0.06,0.84,0.1c0.56,0.09,1.13,0.19,1.7,0.35c0.07,0.02,0.14,0.04,0.21,0.05
				c0.07,0.02,0.14,0.04,0.21,0.06c0.14,0.04,0.29,0.08,0.43,0.13c0.14,0.05,0.29,0.09,0.43,0.14c0.07,0.02,0.14,0.05,0.22,0.07
				C26.86,9.47,26.93,9.5,27,9.53c0.14,0.05,0.29,0.11,0.43,0.16c0.14,0.06,0.29,0.12,0.43,0.18c0.15,0.06,0.29,0.12,0.44,0.19
				c0.07,0.03,0.15,0.06,0.22,0.1c0.07,0.03,0.15,0.06,0.22,0.1c0.15,0.07,0.29,0.14,0.44,0.21l0.11,0.05l0.11,0.06
				c0.07,0.04,0.15,0.07,0.22,0.11c0.29,0.14,0.58,0.31,0.87,0.47c0.15,0.08,0.29,0.17,0.44,0.25c0.07,0.04,0.15,0.08,0.22,0.13
				c0.07,0.04,0.15,0.09,0.22,0.13c0.15,0.09,0.29,0.18,0.44,0.27c0.15,0.09,0.29,0.19,0.44,0.28c0.07,0.05,0.15,0.09,0.22,0.14
				c0.07,0.05,0.14,0.1,0.22,0.15c0.15,0.1,0.29,0.2,0.44,0.29c0.29,0.2,0.58,0.4,0.87,0.62c0.29,0.21,0.58,0.42,0.86,0.64
				c0.16-0.1,0.32-0.19,0.46-0.31c-0.34-0.26-0.67-0.51-1.01-0.76c-0.29-0.22-0.59-0.42-0.88-0.62c-0.15-0.1-0.3-0.2-0.44-0.3
				c-0.07-0.05-0.15-0.1-0.22-0.15c-0.07-0.05-0.15-0.1-0.22-0.14c-0.15-0.09-0.3-0.19-0.44-0.28c-0.15-0.09-0.3-0.18-0.44-0.27
				c-0.07-0.04-0.15-0.09-0.22-0.13c-0.07-0.04-0.15-0.09-0.22-0.13c-0.15-0.08-0.3-0.17-0.44-0.26c-0.3-0.16-0.59-0.33-0.89-0.48
				c-0.07-0.04-0.15-0.08-0.22-0.11l-0.11-0.06l-0.11-0.05c-0.15-0.07-0.3-0.14-0.45-0.21c-0.07-0.04-0.15-0.07-0.22-0.1
				c-0.07-0.03-0.15-0.07-0.22-0.1c-0.15-0.07-0.3-0.13-0.45-0.19c-0.15-0.06-0.3-0.12-0.45-0.18c-0.15-0.06-0.3-0.11-0.45-0.16
				c-0.07-0.03-0.15-0.05-0.22-0.08c-0.07-0.02-0.15-0.05-0.22-0.07c-0.15-0.05-0.3-0.1-0.44-0.15c-0.15-0.04-0.3-0.09-0.44-0.13
				c-0.07-0.02-0.15-0.04-0.22-0.06c-0.07-0.02-0.15-0.04-0.22-0.06c-0.59-0.16-1.17-0.26-1.75-0.36c-0.29-0.04-0.58-0.08-0.87-0.1
				c-0.07-0.01-0.14-0.01-0.22-0.02C22.5,8,22.42,7.99,22.35,7.99c-0.14-0.01-0.29-0.01-0.43-0.02l-0.11-0.01l-0.05,0l-0.05,0
				c-0.07,0-0.14,0-0.21,0c-0.07,0-0.14,0-0.21,0c-0.07,0-0.14,0-0.2,0c-0.07,0-0.14,0-0.2,0c-0.07,0-0.14,0.01-0.2,0.01
				c-0.07,0-0.14,0.01-0.2,0.01C20.42,7.99,20.35,8,20.28,8c-0.54,0.05-1.07,0.12-1.58,0.23c-1.03,0.22-2.02,0.55-2.94,0.98
				c-0.46,0.21-0.9,0.45-1.33,0.7c-0.42,0.25-0.83,0.52-1.22,0.81c-0.39,0.29-0.75,0.58-1.1,0.89c-0.35,0.31-0.67,0.63-0.98,0.96
				c-0.04,0.04-0.08,0.08-0.11,0.12c-0.04,0.04-0.08,0.08-0.11,0.12c-0.07,0.08-0.15,0.17-0.22,0.25c-0.07,0.08-0.14,0.17-0.21,0.25
				c-0.07,0.08-0.14,0.17-0.2,0.26c-0.14,0.17-0.26,0.34-0.38,0.51c-0.12,0.17-0.24,0.34-0.35,0.52c-0.03,0.04-0.06,0.09-0.08,0.13
				l-0.04,0.06l-0.04,0.07c-0.05,0.09-0.11,0.17-0.16,0.26c-0.05,0.09-0.1,0.18-0.15,0.26c-0.02,0.04-0.05,0.09-0.07,0.13
				c-0.02,0.04-0.05,0.09-0.07,0.13c-0.05,0.09-0.09,0.17-0.14,0.26c-0.04,0.09-0.09,0.18-0.13,0.26c-0.02,0.04-0.04,0.09-0.06,0.13
				c-0.02,0.04-0.04,0.09-0.06,0.13c-0.04,0.09-0.08,0.17-0.12,0.26c-0.3,0.69-0.54,1.37-0.71,2.03c-0.35,1.32-0.47,2.53-0.46,3.59
				c0,0.53,0.03,1.02,0.08,1.46c0.01,0.06,0.01,0.11,0.02,0.17c0.01,0.05,0.02,0.11,0.02,0.16c0.02,0.11,0.03,0.21,0.04,0.31
				c0.02,0.1,0.03,0.2,0.05,0.29c0.01,0.05,0.02,0.1,0.02,0.14C7.5,24.91,7.51,24.96,7.52,25c0.02,0.09,0.04,0.18,0.05,0.26
				c0.02,0.08,0.04,0.17,0.06,0.25c0.02,0.08,0.04,0.16,0.05,0.23c0.02,0.07,0.04,0.14,0.06,0.21c0.02,0.07,0.04,0.13,0.05,0.2
				c0.01,0.03,0.02,0.06,0.02,0.09c0.01,0.03,0.02,0.06,0.03,0.09c0.03,0.11,0.07,0.22,0.09,0.31c0.03,0.09,0.06,0.17,0.08,0.24
				c0.02,0.07,0.04,0.13,0.06,0.17c0.03,0.09,0.05,0.14,0.05,0.14s0.07,0.18,0.21,0.53c0.03,0.09,0.08,0.19,0.12,0.29
				c0.05,0.11,0.1,0.22,0.16,0.35c0.03,0.06,0.06,0.13,0.09,0.2c0.03,0.07,0.07,0.14,0.11,0.21c0.04,0.07,0.07,0.15,0.11,0.22
				c0.02,0.04,0.04,0.08,0.06,0.12c0.02,0.04,0.04,0.08,0.07,0.12c0.35,0.64,0.84,1.41,1.52,2.22c0.09,0.1,0.17,0.21,0.26,0.31
				c0.09,0.1,0.19,0.2,0.29,0.31c0.05,0.05,0.1,0.11,0.15,0.16c0.05,0.05,0.1,0.1,0.16,0.15c0.1,0.1,0.21,0.21,0.32,0.32
				c0.45,0.41,0.94,0.84,1.5,1.24c0.56,0.4,1.17,0.78,1.85,1.13c0.08,0.04,0.17,0.08,0.26,0.13c0.04,0.02,0.09,0.04,0.13,0.06
				c0.04,0.02,0.09,0.04,0.13,0.06c0.18,0.08,0.36,0.16,0.54,0.24c0.18,0.07,0.37,0.14,0.56,0.22c0.09,0.04,0.19,0.07,0.29,0.1
				c0.1,0.03,0.19,0.06,0.29,0.1c0.79,0.25,1.63,0.44,2.51,0.56c0.88,0.11,1.81,0.15,2.77,0.09c0.96-0.06,1.94-0.21,2.94-0.48
				c0.12-0.03,0.25-0.06,0.38-0.1c0.13-0.04,0.25-0.07,0.38-0.11c0.13-0.04,0.25-0.08,0.38-0.12c0.13-0.04,0.25-0.09,0.38-0.13
				c0.51-0.19,1.03-0.4,1.54-0.63c1.04-0.47,2.09-1.05,3.14-1.71c1.05-0.66,2.11-1.4,3.18-2.21c2.13-1.62,4.26-3.5,6.43-5.54
				c1.01-0.95,2.02-1.93,3.05-2.94c0.6,0.6,1.21,1.21,1.82,1.82c2.39,2.39,4.86,4.89,7.55,7.34c0.67,0.61,1.36,1.22,2.06,1.83
				c0.71,0.6,1.42,1.2,2.17,1.79c0.74,0.58,1.5,1.16,2.29,1.72c0.79,0.56,1.6,1.1,2.45,1.62c0.21,0.13,0.43,0.26,0.64,0.38
				c0.22,0.13,0.43,0.25,0.65,0.37l0.16,0.09l0.17,0.09l0.33,0.18c0.11,0.06,0.23,0.12,0.34,0.18l0.34,0.17
				c0.91,0.46,1.86,0.87,2.84,1.24c1.95,0.73,4.05,1.26,6.23,1.46l0.41,0.03l0.41,0.02c0.14,0.01,0.28,0.01,0.41,0.02
				c0.14,0,0.28,0.01,0.41,0.01l0.42,0c0.14,0,0.28-0.01,0.42-0.01c0.07,0,0.14,0,0.21-0.01l0.21-0.01
				c0.14-0.01,0.28-0.01,0.42-0.02l0.42-0.03l0.42-0.04c0.14-0.01,0.28-0.03,0.42-0.05c0.14-0.02,0.28-0.04,0.42-0.06
				c0.56-0.08,1.11-0.2,1.66-0.33c1.1-0.27,2.17-0.64,3.21-1.1c0.52-0.23,1.02-0.48,1.52-0.76c0.49-0.27,0.98-0.57,1.45-0.89
				c0.94-0.63,1.82-1.34,2.63-2.11c0.41-0.39,0.8-0.79,1.17-1.2c0.37-0.42,0.73-0.85,1.06-1.29c1.35-1.77,2.41-3.74,3.17-5.83
				c0.38-1.04,0.67-2.11,0.89-3.2c0.21-1.09,0.35-2.2,0.39-3.31C96.58,21.63,96.54,20.51,96.4,19.39z"/>
		</g>
		<g>
			<path class="st0" d="M95.36,19.52c-0.07-0.53-0.15-1.06-0.26-1.58c-0.11-0.52-0.24-1.04-0.4-1.55c-0.31-1.03-0.71-2.02-1.19-2.98
				c-0.24-0.48-0.51-0.94-0.79-1.4c-0.07-0.11-0.14-0.23-0.22-0.34l-0.22-0.33c-0.15-0.22-0.31-0.44-0.47-0.65
				c-0.32-0.43-0.66-0.84-1.01-1.23c-0.35-0.39-0.72-0.78-1.11-1.14c-0.38-0.36-0.78-0.71-1.19-1.04l-0.15-0.12l-0.15-0.12
				c-0.1-0.08-0.21-0.16-0.31-0.24c-0.21-0.15-0.42-0.31-0.63-0.45c-0.85-0.59-1.74-1.11-2.65-1.57c-0.11-0.06-0.23-0.11-0.34-0.17
				c-0.12-0.06-0.23-0.11-0.35-0.17c-0.24-0.11-0.47-0.22-0.71-0.31c-0.47-0.2-0.96-0.38-1.45-0.55c-0.25-0.08-0.49-0.16-0.75-0.23
				c-0.13-0.04-0.25-0.07-0.38-0.11l-0.38-0.1c-0.51-0.12-1.02-0.23-1.54-0.31l-0.19-0.03c-0.06-0.01-0.13-0.02-0.19-0.03
				l-0.39-0.05c-0.26-0.03-0.52-0.05-0.78-0.07l-0.2-0.01l-0.1-0.01l-0.1,0l-0.39-0.01c-0.13,0-0.26,0-0.39,0l-0.2,0l-0.19,0
				c-1.04,0.02-2.07,0.13-3.07,0.31c-0.5,0.09-1,0.2-1.48,0.33c-0.49,0.13-0.97,0.27-1.44,0.43c-0.47,0.16-0.94,0.32-1.39,0.51
				C68,4.26,67.78,4.36,67.56,4.45L67.22,4.6l-0.17,0.07l-0.16,0.08l-0.33,0.15l-0.32,0.16l-0.16,0.08l-0.16,0.08L65.6,5.39
				c-0.42,0.22-0.84,0.45-1.24,0.69c-0.82,0.47-1.6,0.97-2.37,1.48c-0.73,0.49-1.43,1-2.12,1.51c0.12,0.12,0.23,0.25,0.33,0.39
				c0,0,0.01,0.01,0.01,0.01c0.67-0.51,1.36-1,2.07-1.48c0.75-0.51,1.53-1,2.33-1.46c0.4-0.23,0.81-0.46,1.23-0.68l0.31-0.16
				l0.16-0.08l0.16-0.08l0.32-0.16l0.32-0.15l0.16-0.08l0.16-0.07l0.33-0.14c0.22-0.09,0.44-0.19,0.66-0.27
				c0.44-0.18,0.9-0.34,1.36-0.5c0.46-0.15,0.93-0.29,1.4-0.42c0.48-0.12,0.96-0.23,1.45-0.32c0.98-0.18,1.98-0.28,2.99-0.3l0.19,0
				l0.19,0c0.13,0,0.25,0,0.38,0l0.38,0.01l0.09,0l0.09,0.01l0.19,0.01c0.25,0.01,0.51,0.04,0.76,0.07l0.38,0.05
				c0.06,0.01,0.13,0.02,0.19,0.03l0.19,0.03c0.5,0.08,1,0.18,1.49,0.3l0.37,0.09c0.12,0.03,0.24,0.07,0.37,0.1
				c0.24,0.07,0.48,0.15,0.73,0.23c0.48,0.16,0.95,0.34,1.42,0.54c0.23,0.09,0.46,0.2,0.69,0.3c0.11,0.05,0.23,0.11,0.34,0.16
				c0.11,0.06,0.23,0.11,0.34,0.17c0.89,0.45,1.76,0.96,2.59,1.54c0.21,0.14,0.41,0.29,0.62,0.44c0.1,0.08,0.2,0.15,0.3,0.23
				l0.15,0.12l0.15,0.12c0.4,0.32,0.78,0.66,1.15,1.01c0.37,0.35,0.73,0.72,1.08,1.11c0.35,0.38,0.67,0.78,0.98,1.2
				c0.16,0.21,0.31,0.42,0.45,0.63l0.22,0.32c0.07,0.11,0.14,0.22,0.21,0.33c0.27,0.44,0.53,0.89,0.77,1.36
				c0.47,0.93,0.86,1.9,1.16,2.9c0.15,0.5,0.28,1,0.39,1.51c0.11,0.51,0.19,1.02,0.25,1.54c0.13,1.03,0.17,2.07,0.13,3.1
				c-0.04,1.03-0.17,2.06-0.37,3.07c-0.2,1.01-0.48,2.01-0.83,2.97c-0.7,1.94-1.69,3.77-2.94,5.41c-0.31,0.41-0.64,0.81-0.98,1.2
				c-0.35,0.39-0.71,0.76-1.08,1.11c-0.75,0.72-1.56,1.37-2.42,1.95c-0.43,0.29-0.87,0.56-1.33,0.81c-0.46,0.25-0.92,0.49-1.4,0.7
				c-0.95,0.42-1.94,0.76-2.95,1.01c-0.5,0.12-1.01,0.23-1.52,0.3c-0.13,0.02-0.26,0.04-0.38,0.05c-0.13,0.02-0.26,0.04-0.38,0.05
				L78,41.37l-0.38,0.03c-0.13,0.01-0.26,0.01-0.38,0.02l-0.19,0.01c-0.06,0-0.13,0-0.19,0.01c-0.13,0-0.26,0.01-0.38,0.01l-0.38,0
				c-0.13,0-0.26-0.01-0.38-0.01c-0.13,0-0.26-0.01-0.38-0.02l-0.38-0.02l-0.38-0.03c-2.02-0.19-3.99-0.67-5.83-1.36
				c-0.92-0.35-1.82-0.74-2.69-1.17l-0.32-0.17c-0.11-0.06-0.22-0.11-0.32-0.17l-0.32-0.17l-0.16-0.09l-0.16-0.09
				c-0.21-0.12-0.42-0.24-0.62-0.36c-0.2-0.12-0.41-0.25-0.61-0.37c-0.81-0.5-1.6-1.02-2.36-1.56c-0.76-0.54-1.5-1.1-2.23-1.67
				c-0.73-0.57-1.43-1.16-2.12-1.75c-0.69-0.59-1.36-1.19-2.03-1.79c-2.65-2.42-5.1-4.89-7.49-7.29c-0.36-0.36-0.72-0.72-1.07-1.08
				c0.83-0.81,1.66-1.64,2.51-2.48c0.39-0.39,0.79-0.78,1.19-1.17c0,0,0,0,0,0c-0.1-0.14-0.21-0.28-0.34-0.4
				c-0.41,0.4-0.82,0.8-1.22,1.2c-0.85,0.84-1.69,1.67-2.51,2.48c-0.26-0.26-0.53-0.52-0.79-0.79c-0.08,0.16-0.19,0.3-0.33,0.4
				c0.25,0.25,0.5,0.5,0.75,0.75c-1.29,1.27-2.55,2.5-3.81,3.68c-2.18,2.05-4.32,3.94-6.47,5.57c-1.07,0.82-2.14,1.57-3.22,2.24
				c-1.07,0.67-2.14,1.25-3.2,1.74c-0.53,0.24-1.06,0.46-1.58,0.65c-0.13,0.05-0.26,0.09-0.39,0.14c-0.13,0.05-0.26,0.09-0.39,0.13
				c-0.13,0.04-0.26,0.08-0.39,0.12c-0.13,0.04-0.26,0.07-0.39,0.1c-1.03,0.27-2.05,0.43-3.04,0.49c-0.99,0.06-1.95,0.02-2.87-0.1
				c-0.92-0.12-1.79-0.32-2.6-0.58c-0.1-0.03-0.2-0.07-0.3-0.1c-0.1-0.03-0.2-0.06-0.3-0.1c-0.2-0.08-0.39-0.15-0.58-0.22
				c-0.19-0.08-0.37-0.16-0.56-0.25c-0.05-0.02-0.09-0.04-0.14-0.06c-0.04-0.02-0.09-0.04-0.13-0.07c-0.09-0.04-0.18-0.09-0.27-0.13
				c-0.7-0.36-1.34-0.76-1.91-1.17c-0.58-0.42-1.09-0.85-1.55-1.28c-0.11-0.11-0.22-0.22-0.33-0.33c-0.05-0.05-0.11-0.11-0.16-0.16
				c-0.05-0.06-0.1-0.11-0.15-0.16c-0.1-0.11-0.2-0.22-0.3-0.32c-0.09-0.11-0.18-0.22-0.27-0.32c-0.71-0.85-1.21-1.64-1.58-2.31
				c-0.02-0.04-0.05-0.08-0.07-0.12c-0.02-0.04-0.05-0.08-0.07-0.12C8.43,29.15,8.39,29.08,8.35,29c-0.04-0.07-0.07-0.15-0.11-0.22
				c-0.03-0.07-0.07-0.14-0.1-0.2c-0.06-0.13-0.11-0.25-0.16-0.37c-0.05-0.11-0.1-0.21-0.13-0.3c-0.14-0.37-0.22-0.55-0.22-0.55
				l-0.49,0.18c0,0,0.08,0.2,0.22,0.57c0.03,0.1,0.08,0.2,0.13,0.31c0.05,0.12,0.11,0.24,0.17,0.38c0.03,0.07,0.07,0.14,0.1,0.21
				c0.04,0.07,0.07,0.15,0.11,0.22c0.04,0.08,0.08,0.16,0.12,0.24c0.02,0.04,0.04,0.08,0.07,0.12c0.02,0.04,0.05,0.08,0.07,0.13
				c0.38,0.69,0.9,1.51,1.63,2.39c0.09,0.11,0.19,0.22,0.28,0.33c0.1,0.11,0.2,0.22,0.31,0.33c0.05,0.06,0.1,0.11,0.16,0.17
				c0.05,0.06,0.11,0.11,0.17,0.17c0.11,0.11,0.23,0.22,0.34,0.34c0.48,0.44,1.01,0.9,1.61,1.33c0.6,0.43,1.26,0.83,1.98,1.21
				c0.09,0.05,0.18,0.09,0.27,0.14c0.05,0.02,0.09,0.05,0.14,0.07c0.05,0.02,0.09,0.05,0.14,0.07c0.19,0.08,0.38,0.17,0.58,0.25
				c0.2,0.08,0.4,0.15,0.6,0.23c0.1,0.04,0.21,0.07,0.31,0.11c0.1,0.03,0.21,0.07,0.31,0.1c0.84,0.27,1.75,0.47,2.69,0.6
				c0.95,0.12,1.94,0.16,2.97,0.1c1.02-0.06,2.08-0.23,3.14-0.51c0.13-0.03,0.27-0.07,0.4-0.11c0.13-0.04,0.27-0.08,0.4-0.12
				c0.13-0.04,0.27-0.08,0.4-0.13c0.13-0.05,0.27-0.09,0.4-0.14c0.54-0.2,1.08-0.42,1.62-0.67c1.08-0.5,2.17-1.09,3.26-1.77
				c1.09-0.68,2.17-1.44,3.25-2.26c2.17-1.65,4.33-3.55,6.51-5.61c1.26-1.18,2.53-2.42,3.82-3.69c0.36,0.36,0.72,0.72,1.08,1.08
				c2.39,2.4,4.85,4.88,7.51,7.31c0.67,0.61,1.34,1.21,2.04,1.8c0.7,0.59,1.4,1.19,2.13,1.76c0.73,0.57,1.48,1.14,2.25,1.69
				c0.77,0.55,1.57,1.07,2.39,1.58c0.21,0.12,0.41,0.25,0.62,0.37c0.21,0.12,0.42,0.24,0.63,0.36l0.16,0.09l0.16,0.09l0.32,0.17
				c0.11,0.06,0.22,0.11,0.33,0.17l0.33,0.17c0.88,0.44,1.8,0.84,2.74,1.19c1.88,0.7,3.89,1.2,5.96,1.39l0.39,0.03l0.39,0.02
				c0.13,0.01,0.26,0.01,0.39,0.02c0.13,0,0.26,0.01,0.39,0.01l0.39,0c0.13,0,0.26-0.01,0.4-0.01c0.07,0,0.13,0,0.2-0.01l0.2-0.01
				c0.13-0.01,0.26-0.01,0.4-0.02l0.4-0.03l0.4-0.04c0.13-0.01,0.26-0.03,0.4-0.05c0.13-0.02,0.26-0.03,0.39-0.06
				c0.53-0.08,1.05-0.19,1.57-0.31c1.04-0.25,2.05-0.6,3.03-1.04c0.49-0.22,0.97-0.46,1.44-0.72c0.47-0.26,0.93-0.54,1.37-0.84
				c0.89-0.6,1.72-1.27,2.49-2c0.39-0.37,0.76-0.75,1.11-1.14c0.35-0.4,0.69-0.81,1.01-1.23c1.28-1.69,2.3-3.57,3.01-5.55
				c0.36-0.99,0.64-2.01,0.85-3.05c0.2-1.04,0.33-2.09,0.37-3.15C95.53,21.64,95.5,20.58,95.36,19.52z"/>
			<path class="st0" d="M36.08,13.01c-0.39-0.3-0.79-0.6-1.18-0.89c-0.3-0.22-0.6-0.43-0.9-0.64c-0.15-0.1-0.3-0.2-0.45-0.31
				c-0.08-0.05-0.15-0.1-0.23-0.15c-0.08-0.05-0.15-0.1-0.23-0.15c-0.15-0.1-0.3-0.19-0.46-0.29c-0.15-0.09-0.31-0.19-0.46-0.28
				c-0.08-0.05-0.15-0.09-0.23-0.14c-0.08-0.04-0.15-0.09-0.23-0.13c-0.15-0.09-0.31-0.18-0.46-0.26c-0.31-0.17-0.61-0.34-0.92-0.49
				c-0.08-0.04-0.15-0.08-0.23-0.12l-0.12-0.06l-0.12-0.06c-0.16-0.07-0.31-0.15-0.46-0.22c-0.08-0.04-0.15-0.07-0.23-0.11
				c-0.08-0.03-0.16-0.07-0.23-0.1c-0.16-0.07-0.31-0.14-0.47-0.2C28.31,8.36,28.16,8.29,28,8.23c-0.16-0.06-0.31-0.12-0.47-0.17
				C27.46,8.03,27.38,8,27.3,7.97c-0.08-0.03-0.16-0.05-0.23-0.08c-0.16-0.05-0.31-0.1-0.47-0.15c-0.16-0.05-0.31-0.09-0.47-0.14
				c-0.08-0.02-0.16-0.05-0.23-0.07c-0.08-0.02-0.16-0.04-0.23-0.06C25.04,7.31,24.42,7.2,23.8,7.1c-0.31-0.04-0.62-0.09-0.92-0.11
				c-0.08-0.01-0.15-0.01-0.23-0.02c-0.08-0.01-0.15-0.02-0.23-0.02c-0.15-0.01-0.31-0.02-0.46-0.02l-0.11-0.01l-0.06,0l-0.06,0
				c-0.07,0-0.15,0-0.22,0c-0.07,0-0.15,0-0.22,0c-0.07,0-0.15,0-0.22,0c-0.07,0-0.15,0-0.22,0.01c-0.07,0-0.15,0.01-0.22,0.01
				c-0.07,0-0.15,0.01-0.22,0.01c-0.07,0.01-0.15,0.01-0.22,0.02c-0.58,0.05-1.15,0.13-1.71,0.25c-1.12,0.23-2.18,0.59-3.16,1.05
				c-0.49,0.23-0.97,0.48-1.42,0.75c-0.45,0.27-0.89,0.56-1.3,0.86c-0.41,0.31-0.8,0.63-1.18,0.96c-0.37,0.33-0.72,0.68-1.05,1.03
				c-0.04,0.04-0.08,0.09-0.12,0.13c-0.04,0.04-0.08,0.09-0.12,0.13c-0.08,0.09-0.16,0.18-0.23,0.27c-0.08,0.09-0.15,0.18-0.22,0.27
				c-0.08,0.09-0.15,0.18-0.22,0.27c-0.14,0.18-0.28,0.37-0.41,0.55c-0.13,0.19-0.26,0.37-0.38,0.56c-0.03,0.05-0.06,0.09-0.09,0.14
				l-0.04,0.07l-0.04,0.07c-0.06,0.09-0.11,0.19-0.17,0.28c-0.06,0.09-0.11,0.19-0.16,0.28c-0.03,0.05-0.05,0.09-0.08,0.14
				c-0.03,0.05-0.05,0.09-0.08,0.14c-0.05,0.09-0.1,0.19-0.15,0.28c-0.05,0.09-0.09,0.19-0.14,0.28c-0.02,0.05-0.05,0.09-0.07,0.14
				c-0.02,0.05-0.04,0.09-0.06,0.14c-0.04,0.09-0.09,0.19-0.13,0.28c-0.32,0.74-0.58,1.48-0.76,2.18c-0.37,1.42-0.5,2.73-0.49,3.86
				c0,0.57,0.03,1.09,0.09,1.57c0.01,0.06,0.01,0.12,0.02,0.18c0.01,0.06,0.02,0.12,0.02,0.17c0.02,0.11,0.03,0.23,0.05,0.33
				C6.4,24.7,6.42,24.8,6.44,24.9c0.01,0.05,0.02,0.1,0.03,0.15c0.01,0.05,0.02,0.1,0.03,0.15c0.02,0.1,0.04,0.19,0.06,0.28
				c0.02,0.09,0.04,0.18,0.06,0.26c0.02,0.08,0.04,0.17,0.06,0.25c0.02,0.08,0.04,0.15,0.06,0.23c0.02,0.07,0.04,0.14,0.06,0.21
				c0.01,0.03,0.02,0.07,0.03,0.1c0.01,0.03,0.02,0.06,0.03,0.09c0.04,0.12,0.07,0.23,0.1,0.33c0.03,0.1,0.06,0.18,0.09,0.26
				c0.03,0.07,0.05,0.13,0.06,0.18c0.03,0.1,0.05,0.15,0.05,0.15l0.49-0.18c0,0-0.02-0.05-0.05-0.14c-0.02-0.05-0.04-0.11-0.06-0.18
				c-0.02-0.07-0.05-0.15-0.08-0.25c-0.03-0.09-0.06-0.2-0.1-0.32c-0.01-0.03-0.02-0.06-0.03-0.09c-0.01-0.03-0.02-0.06-0.03-0.1
				c-0.02-0.06-0.04-0.13-0.06-0.2c-0.02-0.07-0.04-0.14-0.06-0.22c-0.02-0.08-0.04-0.16-0.06-0.24c-0.02-0.08-0.04-0.17-0.06-0.25
				c-0.02-0.09-0.04-0.18-0.06-0.27C7,25.06,6.99,25.01,6.98,24.96c-0.01-0.05-0.02-0.1-0.03-0.15c-0.02-0.1-0.03-0.2-0.05-0.31
				c-0.02-0.1-0.03-0.21-0.05-0.32c-0.01-0.06-0.02-0.11-0.02-0.17c-0.01-0.06-0.01-0.11-0.02-0.17c-0.05-0.46-0.08-0.97-0.09-1.52
				c-0.01-1.1,0.12-2.36,0.48-3.72c0.18-0.68,0.43-1.39,0.74-2.11c0.04-0.09,0.08-0.18,0.12-0.27c0.02-0.05,0.04-0.09,0.06-0.14
				c0.02-0.05,0.04-0.09,0.07-0.13c0.04-0.09,0.09-0.18,0.13-0.27c0.05-0.09,0.1-0.18,0.14-0.27c0.02-0.05,0.05-0.09,0.07-0.14
				c0.03-0.04,0.05-0.09,0.08-0.13c0.05-0.09,0.1-0.18,0.16-0.27c0.05-0.09,0.11-0.18,0.16-0.27l0.04-0.07l0.04-0.07
				c0.03-0.04,0.06-0.09,0.09-0.13c0.11-0.18,0.24-0.36,0.36-0.54c0.13-0.18,0.26-0.36,0.4-0.53c0.07-0.09,0.14-0.18,0.21-0.26
				c0.07-0.09,0.14-0.18,0.22-0.26c0.08-0.09,0.15-0.17,0.23-0.26c0.04-0.04,0.08-0.09,0.12-0.13c0.04-0.04,0.08-0.09,0.12-0.13
				c0.32-0.34,0.65-0.67,1.01-0.99c0.36-0.32,0.74-0.63,1.14-0.92c0.4-0.3,0.82-0.57,1.26-0.84c0.44-0.26,0.9-0.5,1.37-0.72
				c0.95-0.44,1.98-0.79,3.05-1.01c0.54-0.11,1.09-0.19,1.65-0.24c0.07-0.01,0.14-0.01,0.21-0.02c0.07,0,0.14-0.01,0.21-0.01
				c0.07,0,0.14-0.01,0.21-0.01c0.07,0,0.14,0,0.21,0c0.07,0,0.14,0,0.21,0c0.07,0,0.14,0,0.21,0c0.07,0,0.14,0,0.21,0l0.05,0
				l0.06,0l0.11,0.01c0.15,0.01,0.29,0.01,0.44,0.02c0.07,0,0.15,0.01,0.22,0.02c0.07,0.01,0.15,0.01,0.22,0.02
				c0.3,0.02,0.6,0.07,0.9,0.11c0.6,0.1,1.2,0.21,1.81,0.37c0.08,0.02,0.15,0.04,0.23,0.06c0.08,0.02,0.15,0.04,0.23,0.07
				c0.15,0.04,0.3,0.09,0.46,0.13c0.15,0.05,0.3,0.1,0.46,0.15c0.08,0.03,0.15,0.05,0.23,0.08c0.08,0.03,0.15,0.06,0.23,0.08
				c0.15,0.06,0.3,0.11,0.46,0.17c0.15,0.06,0.3,0.12,0.46,0.18c0.15,0.06,0.3,0.13,0.46,0.2c0.08,0.03,0.15,0.07,0.23,0.1
				c0.08,0.03,0.15,0.07,0.23,0.1c0.15,0.07,0.3,0.14,0.46,0.22l0.11,0.05l0.11,0.06c0.08,0.04,0.15,0.08,0.23,0.12
				c0.3,0.15,0.6,0.32,0.91,0.48c0.15,0.08,0.3,0.17,0.45,0.26c0.08,0.04,0.15,0.09,0.23,0.13c0.08,0.04,0.15,0.09,0.23,0.14
				c0.15,0.09,0.3,0.18,0.45,0.28c0.15,0.1,0.3,0.19,0.45,0.29c0.08,0.05,0.15,0.1,0.23,0.14c0.07,0.05,0.15,0.1,0.22,0.15
				c0.15,0.1,0.3,0.2,0.45,0.3c0.3,0.21,0.6,0.41,0.89,0.63c0.36,0.26,0.72,0.53,1.08,0.81C35.79,13.22,35.93,13.12,36.08,13.01z"/>
		</g>
		<g>
			<path class="st0" d="M36.75,12.22c-0.41-0.32-0.83-0.63-1.25-0.93c-0.31-0.23-0.62-0.44-0.92-0.65c-0.16-0.1-0.31-0.21-0.47-0.31
				c-0.08-0.05-0.16-0.1-0.23-0.16c-0.08-0.05-0.16-0.1-0.23-0.15c-0.16-0.1-0.31-0.2-0.47-0.3c-0.16-0.1-0.32-0.19-0.47-0.29
				c-0.08-0.05-0.16-0.1-0.24-0.14c-0.08-0.05-0.16-0.09-0.24-0.14c-0.16-0.09-0.32-0.18-0.47-0.27c-0.32-0.17-0.64-0.35-0.96-0.51
				c-0.08-0.04-0.16-0.08-0.24-0.12l-0.12-0.06l-0.12-0.06C30.16,8.04,30,7.96,29.84,7.88c-0.08-0.04-0.16-0.07-0.24-0.11
				c-0.08-0.04-0.16-0.07-0.24-0.11c-0.16-0.07-0.32-0.14-0.49-0.21c-0.16-0.07-0.33-0.13-0.49-0.2c-0.16-0.06-0.33-0.12-0.49-0.18
				c-0.08-0.03-0.16-0.06-0.24-0.09c-0.08-0.03-0.16-0.05-0.25-0.08c-0.16-0.05-0.33-0.11-0.49-0.16c-0.16-0.05-0.33-0.1-0.49-0.14
				c-0.08-0.02-0.16-0.05-0.25-0.07C26.09,6.51,26,6.49,25.92,6.47c-0.66-0.18-1.31-0.3-1.97-0.4c-0.33-0.04-0.65-0.09-0.98-0.12
				c-0.08-0.01-0.16-0.01-0.24-0.02c-0.08-0.01-0.16-0.02-0.24-0.02C22.33,5.9,22.17,5.9,22,5.89c-1.28-0.05-2.54,0.06-3.73,0.31
				c-1.2,0.25-2.33,0.64-3.38,1.12c-0.53,0.24-1.03,0.51-1.52,0.8c-0.48,0.29-0.95,0.59-1.39,0.92c-0.44,0.33-0.86,0.67-1.25,1.02
				c-0.4,0.35-0.76,0.72-1.11,1.09c-0.04,0.05-0.09,0.09-0.13,0.14c-0.04,0.05-0.09,0.09-0.13,0.14c-0.08,0.1-0.17,0.19-0.25,0.28
				c-0.08,0.1-0.16,0.19-0.24,0.29C8.79,12.1,8.72,12.2,8.64,12.3c-0.15,0.19-0.3,0.39-0.44,0.59c-0.14,0.2-0.28,0.39-0.4,0.59
				c-0.03,0.05-0.06,0.1-0.1,0.15L7.66,13.7l-0.05,0.08c-0.06,0.1-0.12,0.2-0.18,0.3c-0.06,0.1-0.11,0.2-0.17,0.3
				c-0.03,0.05-0.06,0.1-0.08,0.15c-0.03,0.05-0.05,0.1-0.08,0.15c-0.05,0.1-0.11,0.2-0.16,0.3c-0.05,0.1-0.1,0.2-0.15,0.3
				c-0.02,0.05-0.05,0.1-0.07,0.15c-0.02,0.05-0.05,0.1-0.07,0.15c-0.05,0.1-0.09,0.2-0.14,0.3c-0.34,0.79-0.62,1.58-0.82,2.33
				c-0.4,1.52-0.54,2.92-0.53,4.13c0,0.61,0.04,1.17,0.1,1.68c0.01,0.06,0.01,0.13,0.02,0.19c0.01,0.06,0.02,0.12,0.03,0.19
				c0.02,0.12,0.03,0.24,0.05,0.36c0.02,0.12,0.04,0.23,0.06,0.34c0.01,0.05,0.02,0.11,0.03,0.16c0.01,0.05,0.02,0.11,0.03,0.16
				c0.02,0.1,0.04,0.2,0.06,0.3c0.02,0.1,0.04,0.19,0.07,0.28c0.02,0.09,0.04,0.18,0.06,0.26c0.02,0.08,0.04,0.16,0.06,0.24
				c0.02,0.08,0.04,0.15,0.06,0.22c0.01,0.04,0.02,0.07,0.03,0.1c0.01,0.03,0.02,0.07,0.03,0.1c0.04,0.13,0.08,0.25,0.11,0.35
				c0.03,0.1,0.06,0.19,0.09,0.27c0.03,0.08,0.05,0.14,0.07,0.2c0.04,0.1,0.05,0.16,0.05,0.16l0.49-0.18c0,0-0.02-0.05-0.05-0.15
				c-0.02-0.05-0.04-0.11-0.07-0.19c-0.03-0.08-0.06-0.16-0.09-0.26c-0.03-0.1-0.07-0.21-0.1-0.34c-0.01-0.03-0.02-0.06-0.03-0.1
				c-0.01-0.03-0.02-0.07-0.03-0.1c-0.02-0.07-0.04-0.14-0.06-0.22c-0.02-0.08-0.04-0.15-0.06-0.23c-0.02-0.08-0.04-0.17-0.06-0.25
				c-0.02-0.09-0.04-0.18-0.06-0.27C6.02,25.5,6,25.4,5.98,25.3c-0.01-0.05-0.02-0.1-0.03-0.15C5.94,25.1,5.94,25.05,5.93,25
				c-0.02-0.11-0.04-0.21-0.06-0.33c-0.02-0.11-0.03-0.23-0.05-0.35c-0.01-0.06-0.02-0.12-0.02-0.18c-0.01-0.06-0.01-0.12-0.02-0.18
				c-0.06-0.5-0.09-1.04-0.09-1.63c-0.01-1.17,0.13-2.53,0.51-4c0.19-0.73,0.46-1.49,0.79-2.26c0.04-0.1,0.09-0.19,0.13-0.29
				c0.02-0.05,0.04-0.1,0.07-0.15c0.02-0.05,0.05-0.1,0.07-0.14c0.05-0.1,0.1-0.19,0.14-0.29c0.05-0.1,0.1-0.19,0.15-0.29
				c0.03-0.05,0.05-0.1,0.08-0.15c0.03-0.05,0.05-0.1,0.08-0.14c0.06-0.1,0.11-0.19,0.17-0.29c0.06-0.1,0.12-0.19,0.18-0.29
				l0.04-0.07l0.05-0.07c0.03-0.05,0.06-0.1,0.09-0.14c0.12-0.19,0.26-0.38,0.39-0.58C8.76,13,8.9,12.81,9.05,12.62
				c0.07-0.09,0.15-0.19,0.22-0.28c0.08-0.09,0.15-0.19,0.23-0.28c0.08-0.09,0.16-0.18,0.24-0.28c0.04-0.05,0.08-0.09,0.12-0.14
				c0.04-0.05,0.08-0.09,0.13-0.14c0.34-0.36,0.7-0.72,1.08-1.06c0.38-0.34,0.79-0.67,1.21-0.99c0.43-0.32,0.88-0.61,1.35-0.89
				c0.47-0.28,0.96-0.54,1.47-0.77c1.02-0.47,2.12-0.84,3.27-1.09c0.58-0.12,1.17-0.21,1.77-0.26c0.08-0.01,0.15-0.01,0.23-0.02
				c0.08,0,0.15-0.01,0.23-0.01c0.08,0,0.15-0.01,0.23-0.01c0.08,0,0.15,0,0.23-0.01c0.08,0,0.15,0,0.23,0c0.08,0,0.15,0,0.23,0
				c0.08,0,0.15,0,0.23,0l0.06,0l0.06,0l0.12,0.01c0.16,0.01,0.31,0.02,0.47,0.02c0.08,0,0.16,0.01,0.24,0.02
				c0.08,0.01,0.16,0.01,0.24,0.02c0.32,0.02,0.63,0.07,0.95,0.11c0.63,0.1,1.28,0.22,1.91,0.39c0.08,0.02,0.16,0.04,0.24,0.06
				c0.08,0.02,0.16,0.05,0.24,0.07c0.16,0.05,0.32,0.09,0.48,0.14c0.16,0.05,0.32,0.1,0.48,0.16c0.08,0.03,0.16,0.05,0.24,0.08
				c0.08,0.03,0.16,0.06,0.24,0.09c0.16,0.06,0.32,0.12,0.48,0.18c0.16,0.06,0.32,0.13,0.48,0.19c0.16,0.06,0.32,0.13,0.48,0.2
				c0.08,0.03,0.16,0.07,0.24,0.1c0.08,0.03,0.16,0.07,0.24,0.11c0.16,0.08,0.32,0.15,0.47,0.23l0.12,0.06l0.12,0.06
				c0.08,0.04,0.16,0.08,0.24,0.12c0.32,0.16,0.63,0.33,0.94,0.5c0.16,0.09,0.31,0.18,0.47,0.27c0.08,0.05,0.16,0.09,0.23,0.14
				c0.08,0.05,0.15,0.09,0.23,0.14c0.15,0.09,0.31,0.19,0.47,0.28c0.15,0.1,0.31,0.2,0.46,0.3c0.08,0.05,0.15,0.1,0.23,0.15
				c0.08,0.05,0.15,0.1,0.23,0.15c0.15,0.1,0.31,0.21,0.46,0.31c0.3,0.21,0.61,0.42,0.91,0.65c0.41,0.3,0.82,0.6,1.23,0.92
				C36.54,12.5,36.67,12.37,36.75,12.22z"/>
			<path class="st0" d="M94.33,19.64c-0.06-0.5-0.14-1-0.25-1.49c-0.1-0.49-0.23-0.98-0.37-1.47c-0.29-0.97-0.67-1.91-1.12-2.81
				c-0.23-0.45-0.48-0.89-0.74-1.32c-0.07-0.11-0.13-0.21-0.2-0.32l-0.21-0.31c-0.14-0.21-0.29-0.41-0.44-0.61
				c-0.3-0.4-0.62-0.79-0.95-1.16c-0.34-0.37-0.68-0.73-1.05-1.07c-0.36-0.34-0.74-0.67-1.12-0.98l-0.14-0.12l-0.15-0.11
				c-0.1-0.08-0.2-0.15-0.29-0.23c-0.2-0.15-0.4-0.29-0.6-0.43c-0.81-0.56-1.66-1.06-2.53-1.5c-0.11-0.06-0.22-0.11-0.33-0.16
				c-0.11-0.05-0.22-0.11-0.33-0.16c-0.22-0.1-0.45-0.2-0.67-0.3c-0.45-0.19-0.91-0.36-1.38-0.52c-0.23-0.07-0.47-0.15-0.71-0.22
				c-0.12-0.03-0.24-0.07-0.36-0.1l-0.36-0.09c-0.48-0.12-0.96-0.22-1.45-0.29l-0.18-0.03c-0.06-0.01-0.12-0.02-0.18-0.02
				l-0.37-0.05c-0.25-0.02-0.49-0.05-0.74-0.07l-0.18-0.01l-0.09-0.01l-0.09,0l-0.37-0.01c-0.12,0-0.25,0-0.37,0l-0.18,0l-0.18,0
				c-0.98,0.02-1.95,0.12-2.9,0.29c-0.48,0.09-0.94,0.19-1.41,0.31c-0.46,0.12-0.92,0.26-1.37,0.41c-0.45,0.15-0.89,0.31-1.33,0.49
				c-0.22,0.08-0.43,0.18-0.65,0.27l-0.32,0.14l-0.16,0.07L67.33,5.7l-0.32,0.15L66.7,6l-0.16,0.08l-0.15,0.08l-0.31,0.16
				c-0.41,0.22-0.81,0.43-1.21,0.67c-0.79,0.46-1.56,0.94-2.3,1.45c-0.7,0.47-1.38,0.96-2.05,1.47c0.06,0.16,0.17,0.29,0.28,0.42
				c0,0.01,0.01,0.01,0.01,0.02c0.67-0.5,1.35-0.99,2.05-1.47c0.74-0.5,1.49-0.98,2.27-1.43c0.39-0.23,0.79-0.44,1.19-0.65l0.3-0.16
				l0.15-0.08l0.15-0.08l0.31-0.15l0.31-0.15L67.7,6.1l0.16-0.07l0.31-0.14c0.21-0.09,0.42-0.18,0.64-0.26
				c0.43-0.17,0.86-0.33,1.3-0.48c1.76-0.59,3.63-0.95,5.53-0.98l0.18,0l0.18,0c0.12,0,0.24,0,0.36,0l0.36,0.01l0.09,0l0.09,0.01
				l0.18,0.01c0.24,0.01,0.48,0.04,0.71,0.06l0.36,0.05c0.06,0.01,0.12,0.01,0.18,0.02l0.18,0.03c0.47,0.07,0.94,0.17,1.41,0.28
				l0.35,0.09c0.12,0.03,0.23,0.07,0.35,0.1c0.23,0.06,0.46,0.14,0.69,0.21c0.45,0.16,0.9,0.32,1.34,0.51
				c0.22,0.09,0.44,0.19,0.66,0.29c0.11,0.05,0.22,0.1,0.32,0.15c0.11,0.05,0.22,0.1,0.32,0.16c0.85,0.43,1.68,0.92,2.47,1.47
				c0.2,0.13,0.39,0.28,0.59,0.42c0.1,0.07,0.19,0.15,0.29,0.22l0.14,0.11l0.14,0.11c0.38,0.3,0.74,0.62,1.09,0.96
				c0.35,0.33,0.69,0.68,1.02,1.04c0.33,0.36,0.63,0.74,0.93,1.13c0.15,0.19,0.29,0.39,0.43,0.59l0.2,0.3
				c0.07,0.1,0.13,0.21,0.2,0.31c0.26,0.42,0.5,0.84,0.72,1.28c0.44,0.87,0.81,1.79,1.09,2.73c0.14,0.47,0.26,0.94,0.36,1.42
				c0.1,0.48,0.18,0.96,0.24,1.45c0.12,0.97,0.16,1.95,0.12,2.93c-0.04,0.98-0.16,1.95-0.35,2.91c-0.19,0.96-0.45,1.9-0.79,2.82
				c-0.67,1.84-1.6,3.58-2.79,5.14c-0.3,0.39-0.61,0.77-0.93,1.13c-0.33,0.36-0.67,0.72-1.02,1.05c-0.71,0.68-1.47,1.29-2.29,1.84
				c-0.41,0.27-0.82,0.53-1.25,0.77c-0.43,0.24-0.87,0.46-1.31,0.66c-0.9,0.39-1.82,0.72-2.77,0.95c-0.47,0.12-0.95,0.21-1.43,0.29
				c-0.12,0.02-0.24,0.04-0.36,0.05c-0.12,0.02-0.24,0.03-0.36,0.04l-0.36,0.04l-0.36,0.03c-0.12,0.01-0.24,0.01-0.36,0.02L77,40.39
				c-0.06,0-0.12,0-0.18,0c-0.12,0-0.24,0.01-0.36,0.01l-0.36,0c-0.12,0-0.24-0.01-0.36-0.01c-0.12,0-0.24-0.01-0.36-0.02
				l-0.36-0.02l-0.36-0.03c-1.92-0.18-3.79-0.64-5.56-1.3c-0.89-0.33-1.75-0.71-2.59-1.13l-0.31-0.16c-0.1-0.05-0.21-0.11-0.31-0.16
				l-0.31-0.17l-0.15-0.08l-0.15-0.09c-0.2-0.12-0.4-0.23-0.61-0.35c-0.2-0.12-0.4-0.24-0.6-0.36c-0.79-0.48-1.56-0.99-2.3-1.52
				c-0.75-0.53-1.47-1.08-2.19-1.64c-0.71-0.56-1.4-1.14-2.09-1.72c-0.68-0.58-1.35-1.18-2-1.77c-2.62-2.39-5.07-4.86-7.46-7.26
				c-0.11-0.11-0.22-0.22-0.33-0.34c0.58-0.58,1.17-1.16,1.76-1.74c0.4-0.4,0.81-0.8,1.22-1.2c-0.12-0.13-0.2-0.29-0.33-0.41
				c-0.42,0.41-0.84,0.83-1.26,1.24c-0.59,0.59-1.18,1.17-1.77,1.74c-0.49-0.49-0.98-0.98-1.46-1.46c-0.12,0.13-0.26,0.24-0.4,0.34
				c0.5,0.49,0.99,0.99,1.49,1.49c-1.55,1.53-3.07,3.01-4.57,4.43c-2.19,2.06-4.36,3.98-6.55,5.64c-1.09,0.83-2.19,1.6-3.29,2.29
				c-1.1,0.69-2.21,1.3-3.32,1.8c-0.55,0.25-1.11,0.48-1.66,0.68c-0.14,0.05-0.28,0.1-0.41,0.15c-0.14,0.05-0.28,0.09-0.41,0.14
				c-0.14,0.05-0.28,0.08-0.41,0.12c-0.14,0.04-0.27,0.08-0.41,0.11c-1.09,0.29-2.18,0.46-3.24,0.52c-1.06,0.07-2.09,0.02-3.07-0.1
				c-0.98-0.13-1.91-0.34-2.78-0.62c-0.11-0.04-0.22-0.07-0.32-0.11c-0.11-0.04-0.22-0.07-0.32-0.11c-0.21-0.08-0.42-0.16-0.62-0.24
				c-0.2-0.09-0.4-0.18-0.6-0.26c-0.05-0.02-0.1-0.05-0.14-0.07c-0.05-0.02-0.1-0.05-0.14-0.07c-0.1-0.05-0.19-0.09-0.28-0.14
				c-0.75-0.38-1.43-0.81-2.05-1.25c-0.62-0.44-1.16-0.91-1.66-1.37c-0.12-0.12-0.24-0.24-0.35-0.35c-0.06-0.06-0.12-0.11-0.17-0.17
				c-0.05-0.06-0.11-0.12-0.16-0.18c-0.11-0.12-0.21-0.23-0.32-0.34c-0.1-0.12-0.2-0.23-0.29-0.34c-0.76-0.91-1.3-1.76-1.69-2.47
				c-0.02-0.04-0.05-0.09-0.07-0.13c-0.02-0.04-0.05-0.08-0.07-0.13c-0.04-0.09-0.08-0.17-0.12-0.25c-0.04-0.08-0.08-0.16-0.12-0.23
				c-0.04-0.07-0.08-0.15-0.11-0.22c-0.06-0.14-0.12-0.27-0.17-0.39c-0.05-0.12-0.1-0.23-0.14-0.32c-0.15-0.39-0.23-0.59-0.23-0.59
				l-0.49,0.18c0,0,0.08,0.21,0.24,0.61c0.04,0.1,0.09,0.21,0.14,0.34c0.05,0.12,0.11,0.26,0.18,0.4c0.03,0.07,0.07,0.15,0.11,0.22
				c0.04,0.08,0.08,0.16,0.12,0.24c0.04,0.08,0.08,0.17,0.13,0.26c0.02,0.04,0.05,0.09,0.07,0.13c0.03,0.04,0.05,0.09,0.08,0.14
				c0.4,0.73,0.96,1.61,1.74,2.55c0.1,0.12,0.2,0.24,0.3,0.36c0.11,0.12,0.22,0.23,0.33,0.35c0.06,0.06,0.11,0.12,0.17,0.18
				c0.06,0.06,0.12,0.12,0.18,0.18c0.12,0.12,0.24,0.24,0.37,0.36c0.51,0.47,1.08,0.96,1.72,1.41c0.64,0.45,1.34,0.89,2.11,1.29
				c0.1,0.05,0.19,0.1,0.29,0.15c0.05,0.02,0.1,0.05,0.15,0.07c0.05,0.02,0.1,0.05,0.15,0.07c0.2,0.09,0.41,0.18,0.62,0.27
				c0.21,0.08,0.43,0.16,0.64,0.25c0.11,0.04,0.22,0.08,0.33,0.11c0.11,0.04,0.22,0.07,0.33,0.11c0.9,0.29,1.86,0.51,2.88,0.64
				c1.01,0.13,2.07,0.17,3.16,0.11c1.09-0.07,2.21-0.24,3.34-0.54c0.14-0.04,0.28-0.07,0.42-0.11c0.14-0.04,0.28-0.08,0.42-0.13
				c0.14-0.05,0.28-0.09,0.42-0.14c0.14-0.05,0.28-0.1,0.42-0.15c0.57-0.21,1.13-0.44,1.7-0.7c1.13-0.52,2.26-1.14,3.38-1.83
				c1.12-0.7,2.23-1.48,3.33-2.32c2.21-1.68,4.39-3.61,6.59-5.68c1.51-1.42,3.04-2.91,4.59-4.44c0.11,0.11,0.22,0.22,0.34,0.34
				c2.39,2.4,4.84,4.87,7.48,7.27c0.66,0.6,1.33,1.2,2.01,1.78c0.69,0.59,1.38,1.17,2.1,1.73c0.72,0.56,1.45,1.12,2.21,1.65
				c0.76,0.53,1.53,1.05,2.33,1.54c0.2,0.12,0.4,0.24,0.6,0.36c0.2,0.12,0.41,0.23,0.61,0.35l0.15,0.09l0.16,0.08l0.31,0.17
				c0.1,0.06,0.21,0.11,0.32,0.16l0.32,0.16c0.85,0.43,1.73,0.81,2.64,1.15c1.81,0.68,3.72,1.15,5.7,1.33l0.37,0.03l0.37,0.02
				c0.12,0.01,0.25,0.01,0.37,0.02c0.12,0,0.25,0.01,0.37,0.01l0.37,0c0.12,0,0.25,0,0.37-0.01c0.06,0,0.12,0,0.19-0.01l0.19-0.01
				c0.12-0.01,0.25-0.01,0.37-0.02l0.37-0.03l0.37-0.04c0.12-0.01,0.25-0.03,0.37-0.05c0.12-0.02,0.25-0.03,0.37-0.05
				c0.5-0.07,0.99-0.18,1.48-0.3c0.98-0.24,1.94-0.57,2.86-0.98c0.46-0.21,0.91-0.43,1.35-0.68c0.44-0.24,0.87-0.51,1.29-0.79
				c0.84-0.57,1.63-1.2,2.35-1.89c0.36-0.35,0.72-0.71,1.05-1.08c0.33-0.38,0.65-0.76,0.96-1.16c1.22-1.6,2.18-3.39,2.86-5.27
				c0.34-0.94,0.61-1.91,0.81-2.9c0.19-0.99,0.32-1.99,0.36-2.99C94.49,21.65,94.46,20.64,94.33,19.64z"/>
		</g>
		<g>
			<path class="st0" d="M37.46,11.45c-0.45-0.35-0.89-0.69-1.35-1.01c-0.31-0.23-0.63-0.45-0.95-0.67
				c-0.16-0.11-0.32-0.21-0.48-0.32c-0.08-0.05-0.16-0.11-0.24-0.16c-0.08-0.05-0.16-0.1-0.24-0.16c-0.16-0.1-0.32-0.21-0.48-0.31
				c-0.16-0.1-0.32-0.2-0.49-0.3c-0.08-0.05-0.16-0.1-0.24-0.15c-0.08-0.05-0.16-0.09-0.25-0.14c-0.16-0.09-0.33-0.19-0.49-0.28
				c-0.33-0.18-0.66-0.36-0.99-0.53c-0.08-0.04-0.17-0.08-0.25-0.13L30.9,7.24l-0.13-0.06c-0.17-0.08-0.33-0.16-0.5-0.24
				c-0.08-0.04-0.17-0.08-0.25-0.11c-0.08-0.04-0.17-0.07-0.25-0.11c-0.17-0.07-0.34-0.15-0.51-0.22c-0.17-0.07-0.34-0.14-0.51-0.21
				c-0.17-0.07-0.34-0.13-0.51-0.19c-0.09-0.03-0.17-0.06-0.26-0.09c-0.09-0.03-0.17-0.06-0.26-0.09c-0.17-0.06-0.34-0.11-0.51-0.17
				c-0.17-0.05-0.35-0.1-0.52-0.15c-0.09-0.02-0.17-0.05-0.26-0.07c-0.09-0.02-0.17-0.04-0.26-0.07c-0.69-0.18-1.38-0.31-2.07-0.42
				c-0.35-0.04-0.69-0.1-1.03-0.12c-0.09-0.01-0.17-0.02-0.26-0.02c-0.09-0.01-0.17-0.02-0.26-0.02c-0.17-0.01-0.34-0.02-0.51-0.03
				c-1.37-0.06-2.71,0.07-3.99,0.33c-1.28,0.27-2.49,0.68-3.61,1.2c-0.56,0.26-1.1,0.54-1.61,0.85s-1.01,0.63-1.47,0.98
				c-0.47,0.35-0.91,0.71-1.33,1.08c-0.42,0.37-0.81,0.76-1.18,1.16c-0.05,0.05-0.09,0.1-0.14,0.15c-0.05,0.05-0.09,0.1-0.14,0.15
				c-0.09,0.1-0.18,0.2-0.26,0.3c-0.09,0.1-0.17,0.2-0.25,0.31c-0.09,0.1-0.16,0.2-0.25,0.31c-0.16,0.2-0.31,0.42-0.47,0.62
				c-0.14,0.21-0.29,0.42-0.43,0.63c-0.03,0.05-0.07,0.11-0.1,0.16l-0.05,0.08l-0.05,0.08c-0.06,0.11-0.13,0.21-0.19,0.32
				c-0.06,0.11-0.12,0.21-0.18,0.32c-0.03,0.05-0.06,0.11-0.09,0.16c-0.03,0.05-0.06,0.11-0.09,0.16c-0.06,0.11-0.11,0.21-0.17,0.32
				c-0.05,0.11-0.11,0.21-0.16,0.32c-0.03,0.05-0.05,0.11-0.08,0.16c-0.02,0.05-0.05,0.11-0.07,0.16c-0.05,0.11-0.1,0.21-0.14,0.32
				c-0.37,0.85-0.66,1.68-0.87,2.48c-0.43,1.61-0.57,3.11-0.56,4.41c0,0.65,0.04,1.25,0.1,1.79c0.01,0.07,0.01,0.14,0.02,0.2
				c0.01,0.07,0.02,0.13,0.03,0.2c0.02,0.13,0.03,0.26,0.05,0.38c0.02,0.12,0.04,0.24,0.06,0.36c0.01,0.06,0.02,0.12,0.03,0.17
				c0.01,0.06,0.02,0.11,0.03,0.17c0.02,0.11,0.04,0.22,0.07,0.32c0.02,0.1,0.05,0.2,0.07,0.3c0.02,0.1,0.04,0.19,0.07,0.28
				c0.02,0.09,0.05,0.17,0.07,0.26c0.02,0.08,0.04,0.16,0.06,0.24c0.01,0.04,0.02,0.07,0.03,0.11c0.01,0.04,0.02,0.07,0.03,0.1
				c0.04,0.14,0.08,0.26,0.11,0.37c0.03,0.11,0.07,0.21,0.1,0.29c0.03,0.08,0.05,0.15,0.07,0.21c0.04,0.11,0.06,0.17,0.06,0.17
				l0.49-0.18c0,0-0.02-0.05-0.06-0.16c-0.02-0.05-0.04-0.12-0.07-0.2c-0.03-0.08-0.06-0.17-0.09-0.28
				c-0.03-0.11-0.07-0.23-0.11-0.36c-0.01-0.03-0.02-0.07-0.03-0.1c-0.01-0.04-0.02-0.07-0.03-0.11c-0.02-0.07-0.04-0.15-0.06-0.23
				c-0.02-0.08-0.05-0.16-0.07-0.25c-0.02-0.09-0.04-0.18-0.06-0.27c-0.02-0.09-0.05-0.19-0.07-0.29c-0.02-0.1-0.04-0.2-0.06-0.31
				c-0.01-0.05-0.02-0.11-0.03-0.16c-0.01-0.05-0.02-0.11-0.03-0.17c-0.02-0.11-0.04-0.23-0.06-0.35c-0.02-0.12-0.03-0.24-0.05-0.37
				c-0.01-0.06-0.02-0.13-0.03-0.19c-0.01-0.06-0.01-0.13-0.02-0.2c-0.06-0.53-0.1-1.11-0.1-1.74c-0.01-1.25,0.13-2.7,0.55-4.27
				c0.21-0.78,0.49-1.59,0.84-2.41c0.04-0.1,0.09-0.2,0.14-0.31c0.02-0.05,0.05-0.1,0.07-0.15c0.02-0.05,0.05-0.1,0.08-0.15
				c0.05-0.1,0.1-0.21,0.15-0.31c0.05-0.1,0.11-0.2,0.16-0.31c0.03-0.05,0.06-0.1,0.08-0.16c0.03-0.05,0.06-0.1,0.09-0.15
				c0.06-0.1,0.12-0.21,0.18-0.31c0.06-0.1,0.12-0.2,0.19-0.31l0.05-0.08l0.05-0.08c0.03-0.05,0.07-0.1,0.1-0.15
				c0.13-0.21,0.27-0.41,0.41-0.61c0.15-0.2,0.29-0.41,0.45-0.6c0.08-0.1,0.16-0.2,0.24-0.3c0.08-0.1,0.16-0.2,0.25-0.3
				c0.09-0.1,0.17-0.2,0.26-0.29c0.04-0.05,0.09-0.1,0.13-0.15c0.04-0.05,0.09-0.1,0.13-0.14c0.36-0.38,0.74-0.76,1.15-1.13
				c0.41-0.36,0.84-0.71,1.29-1.05c0.45-0.34,0.93-0.65,1.43-0.95c0.5-0.3,1.02-0.57,1.57-0.82c1.09-0.5,2.26-0.9,3.5-1.16
				c1.24-0.26,2.53-0.38,3.86-0.32c0.17,0.01,0.33,0.02,0.5,0.02c0.08,0,0.17,0.01,0.25,0.02c0.08,0.01,0.17,0.02,0.25,0.02
				c0.34,0.02,0.67,0.08,1.01,0.12c0.67,0.11,1.35,0.23,2.02,0.41c0.08,0.02,0.17,0.04,0.25,0.06c0.08,0.02,0.17,0.05,0.25,0.07
				c0.17,0.05,0.34,0.1,0.5,0.15c0.17,0.05,0.33,0.11,0.5,0.17c0.08,0.03,0.17,0.06,0.25,0.08c0.08,0.03,0.17,0.06,0.25,0.09
				c0.17,0.06,0.33,0.12,0.5,0.19c0.17,0.07,0.33,0.13,0.5,0.2c0.17,0.07,0.33,0.14,0.5,0.21c0.08,0.04,0.17,0.07,0.25,0.11
				c0.08,0.04,0.17,0.07,0.25,0.11c0.16,0.08,0.33,0.16,0.49,0.23l0.12,0.06l0.12,0.06c0.08,0.04,0.16,0.08,0.24,0.13
				c0.33,0.16,0.65,0.34,0.97,0.52c0.16,0.09,0.32,0.18,0.48,0.28c0.08,0.05,0.16,0.09,0.24,0.14c0.08,0.05,0.16,0.1,0.24,0.14
				c0.16,0.1,0.32,0.19,0.48,0.29c0.16,0.1,0.32,0.2,0.48,0.3c0.08,0.05,0.16,0.1,0.24,0.15c0.08,0.05,0.16,0.11,0.24,0.16
				c0.16,0.11,0.31,0.21,0.47,0.32c0.31,0.22,0.63,0.43,0.94,0.66c0.42,0.3,0.84,0.62,1.25,0.94C37.21,11.7,37.37,11.6,37.46,11.45z
				"/>
			<path class="st0" d="M93.3,19.77c-0.06-0.47-0.14-0.94-0.23-1.41c-0.1-0.47-0.22-0.93-0.35-1.38c-0.27-0.91-0.63-1.79-1.05-2.64
				c-0.21-0.42-0.45-0.84-0.7-1.24c-0.06-0.1-0.12-0.2-0.19-0.3l-0.2-0.3c-0.14-0.19-0.27-0.39-0.41-0.58
				c-0.28-0.38-0.58-0.74-0.9-1.09c-0.32-0.35-0.64-0.69-0.99-1.01c-0.34-0.32-0.69-0.64-1.06-0.93l-0.14-0.11l-0.14-0.11
				c-0.09-0.07-0.19-0.14-0.28-0.21c-0.19-0.14-0.38-0.28-0.57-0.41c-0.77-0.53-1.58-1.01-2.41-1.43c-0.1-0.05-0.21-0.1-0.31-0.15
				c-0.11-0.05-0.21-0.1-0.31-0.15c-0.21-0.1-0.42-0.19-0.64-0.28c-0.43-0.18-0.87-0.34-1.3-0.49c-0.22-0.07-0.44-0.15-0.67-0.21
				c-0.11-0.03-0.22-0.07-0.34-0.09l-0.34-0.09c-0.45-0.11-0.9-0.21-1.36-0.27l-0.17-0.03c-0.06-0.01-0.11-0.02-0.17-0.02
				l-0.34-0.04c-0.23-0.02-0.46-0.05-0.69-0.06l-0.17-0.01l-0.09-0.01l-0.09,0l-0.35-0.01c-0.12,0-0.23,0-0.35,0l-0.17,0l-0.17,0
				c-1.84,0.03-3.66,0.38-5.37,0.95c-0.43,0.14-0.85,0.3-1.27,0.47c-0.21,0.08-0.42,0.17-0.62,0.26L68.07,6.5l-0.15,0.07l-0.15,0.07
				l-0.3,0.14l-0.3,0.15L67.01,7l-0.15,0.08l-0.3,0.15c-0.39,0.21-0.78,0.42-1.17,0.64c-0.77,0.44-1.51,0.92-2.24,1.41
				c-0.69,0.46-1.35,0.94-2.01,1.44c0.11,0.11,0.19,0.24,0.29,0.36c0.01,0.01,0.01,0.02,0.01,0.03c0,0,0.01,0.01,0.01,0.01
				c0.65-0.49,1.31-0.96,1.98-1.42c0.72-0.49,1.45-0.95,2.21-1.39c0.38-0.22,0.76-0.43,1.15-0.63l0.29-0.15l0.15-0.07l0.15-0.07
				l0.3-0.14l0.3-0.14l0.15-0.07l0.15-0.07l0.3-0.13c0.2-0.08,0.4-0.17,0.61-0.25c0.41-0.17,0.82-0.31,1.24-0.45
				c1.67-0.56,3.44-0.9,5.22-0.93l0.17,0l0.17,0c0.11,0,0.22,0,0.33,0l0.33,0.01l0.08,0l0.08,0.01l0.17,0.01
				c0.22,0.01,0.45,0.04,0.67,0.06l0.33,0.04c0.06,0.01,0.11,0.01,0.17,0.02l0.17,0.03c0.44,0.07,0.88,0.16,1.32,0.27l0.33,0.08
				c0.11,0.03,0.22,0.06,0.32,0.09c0.22,0.06,0.43,0.13,0.65,0.2c0.43,0.15,0.85,0.3,1.27,0.48c0.21,0.08,0.41,0.18,0.62,0.27
				c0.1,0.05,0.2,0.1,0.31,0.15c0.1,0.05,0.2,0.1,0.31,0.15c0.81,0.41,1.6,0.87,2.35,1.39c0.19,0.13,0.37,0.26,0.56,0.4
				c0.09,0.07,0.18,0.14,0.27,0.21l0.14,0.1l0.13,0.11c0.36,0.28,0.7,0.59,1.03,0.9c0.33,0.31,0.65,0.64,0.96,0.98
				c0.31,0.34,0.6,0.69,0.87,1.06c0.14,0.18,0.27,0.37,0.4,0.56l0.19,0.29c0.06,0.09,0.12,0.19,0.18,0.29
				c0.24,0.39,0.47,0.79,0.68,1.2c0.41,0.82,0.76,1.67,1.02,2.56c0.13,0.44,0.25,0.89,0.34,1.34c0.09,0.45,0.17,0.91,0.22,1.36
				c0.11,0.92,0.15,1.84,0.11,2.76c-0.04,0.92-0.15,1.84-0.33,2.75c-0.18,0.91-0.43,1.8-0.74,2.67c-0.63,1.74-1.52,3.39-2.64,4.86
				c-0.28,0.37-0.57,0.72-0.88,1.07c-0.31,0.34-0.63,0.68-0.96,0.99c-0.67,0.64-1.39,1.22-2.15,1.73c-0.38,0.26-0.77,0.5-1.18,0.72
				c-0.4,0.22-0.81,0.43-1.23,0.61c-0.84,0.37-1.71,0.67-2.6,0.89c-0.44,0.11-0.89,0.2-1.34,0.27c-0.11,0.02-0.23,0.03-0.34,0.05
				c-0.11,0.01-0.23,0.03-0.34,0.04l-0.34,0.04l-0.34,0.03c-0.11,0.01-0.23,0.01-0.34,0.02l-0.17,0.01c-0.06,0-0.11,0-0.17,0
				c-0.11,0-0.23,0.01-0.34,0.01l-0.34,0c-0.11,0-0.23-0.01-0.34-0.01c-0.11,0-0.23-0.01-0.34-0.01l-0.34-0.02l-0.34-0.03
				c-1.81-0.17-3.6-0.61-5.29-1.24c-0.85-0.32-1.68-0.68-2.49-1.08l-0.3-0.15c-0.1-0.05-0.2-0.1-0.3-0.16l-0.3-0.16l-0.15-0.08
				l-0.15-0.08c-0.2-0.11-0.39-0.22-0.59-0.33c-0.19-0.12-0.39-0.23-0.58-0.35c-0.77-0.47-1.51-0.97-2.25-1.48
				c-0.73-0.52-1.44-1.06-2.14-1.61c-0.7-0.55-1.38-1.12-2.05-1.69c-0.67-0.57-1.33-1.16-1.98-1.75c-2.45-2.23-4.76-4.55-7.02-6.82
				c0.34-0.33,0.68-0.67,1.02-1.01c0.41-0.4,0.82-0.8,1.23-1.21c-0.11-0.13-0.25-0.24-0.36-0.37c-0.41,0.4-0.82,0.81-1.23,1.21
				c-0.34,0.34-0.68,0.67-1.02,1.01c-0.01-0.01-0.02-0.02-0.04-0.04c-0.74-0.74-1.48-1.48-2.21-2.21c-0.11,0.14-0.21,0.28-0.36,0.38
				c0.73,0.73,1.47,1.46,2.2,2.2c0.01,0.01,0.02,0.02,0.03,0.03c-1.81,1.79-3.58,3.53-5.34,5.18c-2.21,2.08-4.4,4.01-6.63,5.71
				c-1.12,0.85-2.24,1.64-3.37,2.35c-1.13,0.71-2.28,1.34-3.44,1.87c-0.58,0.26-1.16,0.5-1.74,0.71c-0.14,0.06-0.29,0.1-0.44,0.15
				c-0.14,0.05-0.29,0.1-0.44,0.14c-0.14,0.05-0.29,0.09-0.44,0.13c-0.14,0.04-0.29,0.08-0.44,0.12c-1.16,0.31-2.31,0.49-3.44,0.56
				c-1.12,0.07-2.22,0.03-3.26-0.11c-1.04-0.14-2.04-0.36-2.97-0.66c-0.12-0.04-0.23-0.08-0.35-0.11c-0.11-0.04-0.23-0.07-0.34-0.12
				c-0.22-0.09-0.44-0.17-0.66-0.26c-0.21-0.09-0.43-0.19-0.63-0.28c-0.05-0.02-0.1-0.05-0.15-0.07c-0.05-0.03-0.1-0.05-0.15-0.08
				c-0.1-0.05-0.2-0.1-0.3-0.15c-0.79-0.41-1.52-0.86-2.18-1.33c-0.66-0.47-1.24-0.97-1.77-1.46c-0.13-0.13-0.25-0.25-0.38-0.37
				c-0.06-0.06-0.12-0.12-0.18-0.18c-0.06-0.06-0.12-0.13-0.17-0.19C9.11,33.72,9,33.6,8.89,33.48c-0.11-0.12-0.21-0.25-0.31-0.37
				c-0.81-0.97-1.38-1.87-1.8-2.63c-0.03-0.05-0.05-0.09-0.08-0.14c-0.03-0.05-0.05-0.09-0.07-0.14c-0.05-0.09-0.09-0.18-0.13-0.26
				c-0.04-0.09-0.08-0.17-0.12-0.25c-0.04-0.08-0.08-0.16-0.11-0.23c-0.07-0.15-0.13-0.29-0.19-0.42c-0.06-0.13-0.11-0.24-0.15-0.35
				c-0.16-0.42-0.25-0.63-0.25-0.63l-0.49,0.18c0,0,0.09,0.22,0.25,0.65c0.04,0.11,0.09,0.23,0.15,0.36
				c0.06,0.13,0.12,0.27,0.19,0.43c0.03,0.08,0.07,0.16,0.12,0.24c0.04,0.08,0.08,0.17,0.13,0.26c0.04,0.09,0.09,0.18,0.14,0.27
				c0.02,0.05,0.05,0.09,0.08,0.14c0.03,0.05,0.05,0.1,0.08,0.14c0.43,0.78,1.03,1.72,1.86,2.71c0.1,0.12,0.21,0.25,0.32,0.38
				c0.11,0.12,0.23,0.25,0.35,0.38c0.06,0.06,0.12,0.13,0.18,0.19c0.06,0.06,0.13,0.13,0.19,0.19c0.13,0.13,0.26,0.25,0.39,0.39
				c0.55,0.5,1.15,1.02,1.82,1.5c0.68,0.48,1.43,0.95,2.25,1.37c0.1,0.05,0.21,0.1,0.31,0.15c0.05,0.03,0.1,0.05,0.16,0.08
				c0.05,0.03,0.1,0.05,0.16,0.08c0.22,0.09,0.43,0.19,0.65,0.29c0.22,0.09,0.45,0.18,0.68,0.26c0.11,0.05,0.23,0.08,0.35,0.12
				c0.12,0.04,0.24,0.08,0.36,0.12c0.96,0.3,1.98,0.54,3.06,0.68c1.08,0.14,2.2,0.18,3.36,0.11c1.16-0.07,2.35-0.26,3.54-0.57
				c0.15-0.04,0.3-0.07,0.45-0.12c0.15-0.04,0.3-0.09,0.45-0.13c0.15-0.05,0.3-0.09,0.45-0.15c0.15-0.05,0.3-0.1,0.45-0.16
				c0.59-0.22,1.19-0.46,1.78-0.73c1.18-0.54,2.35-1.18,3.5-1.9c1.15-0.72,2.29-1.52,3.41-2.37c2.25-1.71,4.46-3.66,6.68-5.75
				c1.77-1.66,3.54-3.41,5.35-5.2c2.27,2.27,4.58,4.59,7.04,6.84c0.65,0.59,1.31,1.18,1.99,1.76c0.68,0.58,1.36,1.15,2.07,1.71
				c0.71,0.55,1.42,1.1,2.16,1.62c0.74,0.52,1.5,1.02,2.27,1.5c0.2,0.12,0.39,0.23,0.59,0.35c0.2,0.11,0.4,0.23,0.6,0.34l0.15,0.08
				l0.15,0.08l0.3,0.16c0.1,0.06,0.2,0.11,0.31,0.16l0.31,0.16c0.82,0.41,1.67,0.78,2.54,1.11c1.73,0.65,3.56,1.1,5.43,1.27
				l0.35,0.03l0.35,0.02c0.12,0.01,0.23,0.01,0.35,0.01c0.12,0,0.23,0.01,0.35,0.01l0.35,0c0.12,0,0.24,0,0.35-0.01
				c0.06,0,0.12,0,0.18,0l0.18-0.01c0.12-0.01,0.24-0.01,0.35-0.02l0.35-0.03l0.35-0.04c0.12-0.01,0.23-0.03,0.35-0.04
				c0.12-0.02,0.23-0.03,0.35-0.05c0.47-0.07,0.93-0.17,1.39-0.28c0.92-0.22,1.82-0.53,2.69-0.92c0.43-0.19,0.86-0.41,1.27-0.64
				c0.42-0.23,0.82-0.48,1.21-0.74c0.79-0.53,1.53-1.13,2.22-1.79c0.34-0.33,0.68-0.67,0.99-1.02c0.32-0.36,0.62-0.72,0.91-1.1
				c1.15-1.51,2.07-3.21,2.71-5c0.32-0.9,0.58-1.81,0.76-2.75c0.18-0.93,0.3-1.88,0.34-2.83C93.45,21.67,93.42,20.71,93.3,19.77z"/>
		</g>
		<g>
			<path class="st0" d="M47.16,18.91c-0.05,0.04-0.09,0.08-0.13,0.12c0.03-0.03,0.07-0.06,0.1-0.08
				C47.14,18.94,47.15,18.92,47.16,18.91z"/>
			<path class="st0" d="M92.27,19.9c-0.05-0.44-0.13-0.88-0.22-1.32c-0.09-0.44-0.2-0.87-0.33-1.29c-0.25-0.85-0.59-1.68-0.99-2.47
				c-0.2-0.4-0.42-0.78-0.65-1.16c-0.06-0.09-0.12-0.19-0.18-0.28l-0.18-0.28c-0.13-0.18-0.25-0.36-0.39-0.54
				c-1.06-1.42-2.37-2.64-3.83-3.65C84.77,8.4,84,7.96,83.21,7.55c-0.1-0.05-0.2-0.1-0.3-0.15c-0.1-0.05-0.2-0.1-0.3-0.14
				c-0.2-0.09-0.4-0.18-0.6-0.27c-0.4-0.17-0.82-0.32-1.23-0.47c-0.21-0.07-0.42-0.14-0.63-0.19c-0.1-0.03-0.21-0.06-0.31-0.09
				l-0.32-0.08c-0.42-0.1-0.85-0.19-1.28-0.26l-0.16-0.03c-0.05-0.01-0.11-0.01-0.16-0.02L77.6,5.82c-0.22-0.02-0.43-0.05-0.65-0.06
				L76.8,5.75l-0.08-0.01l-0.08,0l-0.32-0.01c-0.11,0-0.22,0-0.32,0l-0.16,0l-0.16,0c-1.72,0.03-3.43,0.35-5.06,0.9
				c-0.41,0.14-0.81,0.28-1.21,0.44c-0.2,0.08-0.4,0.16-0.6,0.25l-0.3,0.13l-0.15,0.07L68.2,7.58l-0.29,0.14l-0.29,0.14l-0.14,0.07
				l-0.14,0.07l-0.29,0.15c-0.38,0.2-0.76,0.41-1.13,0.62c-0.74,0.43-1.47,0.89-2.18,1.37c-0.65,0.44-1.29,0.9-1.91,1.37
				c0.12,0.12,0.22,0.26,0.31,0.41c0,0,0,0.01,0,0.01c0.62-0.47,1.25-0.92,1.9-1.36c0.7-0.47,1.42-0.93,2.15-1.35
				c0.37-0.21,0.74-0.41,1.11-0.61l0.28-0.14l0.14-0.07l0.14-0.07l0.28-0.14l0.29-0.13l0.14-0.07l0.14-0.06L69,7.8
				c0.19-0.08,0.39-0.17,0.58-0.24c0.39-0.16,0.79-0.3,1.18-0.43c1.59-0.53,3.25-0.85,4.91-0.87c1.66-0.03,3.33,0.24,4.94,0.77
				c0.4,0.14,0.8,0.28,1.19,0.45c0.2,0.08,0.39,0.17,0.59,0.26c0.1,0.04,0.19,0.09,0.29,0.14c0.1,0.05,0.19,0.09,0.29,0.14
				c0.77,0.39,1.52,0.83,2.23,1.32c1.42,0.98,2.68,2.16,3.71,3.53c0.13,0.17,0.25,0.35,0.38,0.52l0.18,0.27
				c0.06,0.09,0.11,0.18,0.17,0.27c0.23,0.36,0.44,0.74,0.63,1.12c0.38,0.76,0.71,1.56,0.95,2.39c0.12,0.41,0.23,0.83,0.32,1.25
				c0.09,0.42,0.16,0.85,0.21,1.28c0.11,0.86,0.14,1.73,0.1,2.6c-0.03,0.87-0.14,1.74-0.31,2.59c-0.17,0.86-0.41,1.7-0.7,2.52
				c-0.59,1.64-1.43,3.2-2.49,4.58c-0.26,0.35-0.54,0.68-0.83,1.01c-0.29,0.32-0.59,0.63-0.91,0.93c-0.63,0.6-1.3,1.14-2.01,1.62
				c-0.36,0.24-0.72,0.47-1.1,0.67c-0.38,0.21-0.76,0.4-1.15,0.57c-0.78,0.34-1.59,0.63-2.42,0.83c-1.66,0.41-3.39,0.52-5.1,0.36
				c-1.71-0.16-3.4-0.57-5.02-1.18c-0.81-0.3-1.61-0.65-2.38-1.04l-0.29-0.15c-0.1-0.05-0.19-0.1-0.29-0.15l-0.29-0.15l-0.14-0.08
				l-0.14-0.08c-0.19-0.11-0.38-0.21-0.57-0.32c-0.19-0.11-0.37-0.22-0.56-0.34c-0.74-0.46-1.47-0.94-2.19-1.44
				c-0.71-0.5-1.41-1.03-2.1-1.57c-0.69-0.54-1.36-1.1-2.02-1.67c-0.66-0.57-1.31-1.15-1.95-1.73c-2.16-1.97-4.22-4.02-6.24-6.04
				c0.09-0.09,0.18-0.18,0.27-0.27c0.41-0.41,0.83-0.82,1.25-1.23c-0.01,0-0.03,0-0.04-0.01c-0.11-0.12-0.23-0.23-0.32-0.36
				c-0.42,0.41-0.84,0.82-1.25,1.23c-0.09,0.09-0.18,0.18-0.28,0.27c-0.26-0.26-0.52-0.52-0.78-0.78c-0.74-0.74-1.47-1.47-2.2-2.2
				c-0.04,0.02-0.07,0.04-0.11,0.07c-0.08,0.1-0.17,0.21-0.25,0.31c0.73,0.72,1.46,1.46,2.2,2.19c0.26,0.26,0.52,0.52,0.77,0.77
				c-2.07,2.04-4.09,4.04-6.1,5.94c-2.22,2.09-4.44,4.05-6.72,5.78c-1.14,0.86-2.29,1.67-3.45,2.4c-1.17,0.73-2.35,1.38-3.56,1.93
				c-0.6,0.27-1.21,0.52-1.82,0.75c-0.15,0.06-0.3,0.11-0.46,0.16c-0.15,0.05-0.31,0.1-0.46,0.15c-0.15,0.05-0.31,0.09-0.46,0.14
				c-0.15,0.05-0.31,0.08-0.46,0.12c-1.22,0.32-2.45,0.52-3.64,0.59c-1.19,0.07-2.35,0.03-3.46-0.12c-1.11-0.14-2.16-0.39-3.15-0.7
				c-0.12-0.04-0.24-0.08-0.37-0.12c-0.12-0.04-0.24-0.08-0.36-0.13c-0.24-0.09-0.47-0.18-0.7-0.27c-0.23-0.1-0.45-0.2-0.67-0.3
				c-0.06-0.02-0.11-0.05-0.16-0.08c-0.05-0.03-0.11-0.05-0.16-0.08c-0.11-0.05-0.21-0.11-0.32-0.16c-0.84-0.43-1.61-0.91-2.31-1.41
				c-0.7-0.5-1.32-1.03-1.88-1.55c-0.14-0.13-0.27-0.27-0.4-0.4c-0.07-0.07-0.13-0.13-0.2-0.19c-0.06-0.07-0.12-0.13-0.18-0.2
				c-0.12-0.13-0.24-0.26-0.36-0.39C8,34.04,7.89,33.91,7.78,33.78c-0.86-1.02-1.47-1.99-1.91-2.79c-0.03-0.05-0.06-0.1-0.08-0.15
				c-0.03-0.05-0.06-0.1-0.08-0.14c-0.05-0.1-0.1-0.19-0.14-0.28c-0.05-0.09-0.09-0.18-0.13-0.26c-0.04-0.08-0.08-0.17-0.12-0.25
				c-0.07-0.16-0.14-0.31-0.2-0.44C5.06,29.33,5,29.21,4.96,29.09c-0.17-0.44-0.26-0.67-0.26-0.67l0,0c0,0-0.02-0.06-0.06-0.17
				c-0.02-0.06-0.04-0.13-0.07-0.21c-0.03-0.08-0.06-0.18-0.1-0.3c-0.03-0.11-0.07-0.24-0.12-0.38c-0.01-0.04-0.02-0.07-0.03-0.11
				c-0.01-0.04-0.02-0.08-0.03-0.11c-0.02-0.08-0.04-0.16-0.07-0.24c-0.02-0.08-0.05-0.17-0.07-0.26c-0.02-0.09-0.04-0.19-0.07-0.29
				c-0.02-0.1-0.05-0.2-0.07-0.31c-0.02-0.11-0.04-0.22-0.07-0.33c-0.01-0.06-0.02-0.11-0.04-0.17c-0.01-0.06-0.02-0.12-0.03-0.18
				c-0.02-0.12-0.04-0.24-0.06-0.37c-0.02-0.13-0.04-0.26-0.06-0.39c-0.01-0.07-0.02-0.13-0.03-0.2c-0.01-0.07-0.02-0.14-0.02-0.21
				c-0.07-0.56-0.1-1.18-0.11-1.85c0-0.67,0.03-1.39,0.12-2.15c0.09-0.76,0.24-1.56,0.46-2.39c0.22-0.83,0.52-1.69,0.9-2.56
				c0.05-0.11,0.1-0.22,0.15-0.33c0.02-0.05,0.05-0.11,0.08-0.16c0.03-0.05,0.05-0.11,0.08-0.16c0.05-0.11,0.11-0.22,0.16-0.33
				c0.06-0.11,0.12-0.22,0.17-0.33c0.03-0.05,0.06-0.11,0.09-0.16c0.03-0.05,0.06-0.11,0.09-0.16c0.06-0.11,0.12-0.22,0.19-0.33
				c0.07-0.11,0.13-0.22,0.2-0.33l0.05-0.08l0.05-0.08c0.03-0.05,0.07-0.11,0.11-0.16c0.14-0.22,0.29-0.43,0.44-0.65
				c0.16-0.21,0.31-0.43,0.48-0.64c0.08-0.11,0.16-0.21,0.25-0.32c0.09-0.1,0.17-0.21,0.26-0.31c0.09-0.1,0.18-0.21,0.27-0.31
				c0.04-0.05,0.09-0.1,0.14-0.15c0.05-0.05,0.09-0.1,0.14-0.15C8.86,9.68,9.26,9.28,9.69,8.9c0.43-0.38,0.89-0.76,1.37-1.11
				c0.48-0.36,0.99-0.69,1.52-1.01c0.53-0.31,1.08-0.61,1.66-0.87c1.15-0.53,2.4-0.96,3.72-1.23c1.32-0.28,2.7-0.4,4.11-0.34
				c0.18,0.01,0.35,0.02,0.53,0.03c0.09,0,0.18,0.01,0.26,0.02c0.09,0.01,0.18,0.02,0.26,0.02c0.35,0.03,0.71,0.08,1.06,0.13
				c0.71,0.11,1.42,0.24,2.13,0.43C26.4,4.98,26.49,5,26.58,5.03c0.09,0.02,0.18,0.05,0.26,0.08c0.18,0.05,0.35,0.1,0.53,0.15
				c0.17,0.06,0.35,0.12,0.53,0.17c0.09,0.03,0.18,0.06,0.26,0.09c0.09,0.03,0.17,0.06,0.26,0.1c0.17,0.06,0.35,0.13,0.52,0.19
				c0.17,0.07,0.35,0.14,0.52,0.21c0.17,0.07,0.34,0.15,0.52,0.22c0.09,0.04,0.17,0.08,0.26,0.11c0.09,0.04,0.17,0.08,0.26,0.12
				c0.17,0.08,0.34,0.16,0.51,0.24l0.13,0.06l0.13,0.06c0.08,0.04,0.17,0.09,0.25,0.13c0.34,0.17,0.67,0.36,1.01,0.54
				c0.17,0.09,0.33,0.19,0.5,0.29c0.08,0.05,0.17,0.1,0.25,0.14c0.08,0.05,0.16,0.1,0.25,0.15c0.16,0.1,0.33,0.2,0.49,0.3
				c0.16,0.1,0.33,0.21,0.49,0.31c0.08,0.05,0.16,0.1,0.24,0.16c0.08,0.05,0.16,0.11,0.24,0.16c0.16,0.11,0.32,0.22,0.48,0.33
				c0.32,0.22,0.64,0.44,0.96,0.68c0.48,0.35,0.95,0.7,1.42,1.07c0.14-0.1,0.27-0.23,0.35-0.39c-0.48-0.38-0.97-0.75-1.47-1.1
				c-0.32-0.24-0.65-0.46-0.97-0.69c-0.16-0.11-0.33-0.22-0.49-0.33c-0.08-0.05-0.16-0.11-0.24-0.16c-0.08-0.05-0.17-0.11-0.25-0.16
				c-0.17-0.11-0.33-0.21-0.49-0.32c-0.17-0.1-0.33-0.2-0.5-0.31c-0.08-0.05-0.17-0.1-0.25-0.15c-0.08-0.05-0.17-0.1-0.25-0.15
				c-0.17-0.1-0.34-0.2-0.51-0.29c-0.34-0.19-0.68-0.37-1.02-0.55c-0.09-0.04-0.17-0.09-0.26-0.13l-0.13-0.07l-0.13-0.06
				C31.06,6.16,30.89,6.08,30.71,6c-0.09-0.04-0.17-0.08-0.26-0.12c-0.09-0.04-0.18-0.08-0.26-0.12c-0.18-0.08-0.35-0.16-0.53-0.23
				c-0.18-0.07-0.35-0.14-0.53-0.21c-0.18-0.07-0.36-0.13-0.53-0.2c-0.09-0.03-0.18-0.07-0.27-0.1C28.24,5,28.15,4.97,28.06,4.94
				c-0.18-0.06-0.36-0.12-0.54-0.18c-0.18-0.05-0.36-0.11-0.54-0.16c-0.09-0.03-0.18-0.05-0.27-0.08c-0.09-0.02-0.18-0.05-0.27-0.07
				c-0.72-0.19-1.45-0.33-2.18-0.44c-0.36-0.05-0.73-0.1-1.09-0.13c-0.09-0.01-0.18-0.02-0.27-0.02c-0.09-0.01-0.18-0.02-0.27-0.02
				c-0.18-0.01-0.36-0.02-0.54-0.03L21.95,3.8l-0.07,0l-0.07,0c-0.09,0-0.18,0-0.27,0c-0.09,0-0.18,0-0.27,0
				c-0.09,0-0.18,0-0.27,0.01c-0.09,0-0.18,0-0.27,0.01c-0.09,0-0.18,0.01-0.27,0.01c-0.09,0-0.18,0.01-0.27,0.01
				c-0.09,0.01-0.18,0.02-0.27,0.02c-0.71,0.06-1.41,0.16-2.08,0.31c-1.36,0.28-2.64,0.72-3.83,1.27c-0.59,0.27-1.16,0.58-1.71,0.9
				C11.76,6.66,11.24,7,10.75,7.37c-0.49,0.36-0.96,0.75-1.41,1.14C8.9,8.91,8.49,9.32,8.09,9.74C8.05,9.79,8,9.84,7.95,9.89
				C7.9,9.95,7.85,10,7.81,10.05c-0.09,0.11-0.19,0.21-0.28,0.32c-0.09,0.11-0.18,0.22-0.27,0.32C7.17,10.8,7.08,10.91,7,11.02
				c-0.17,0.22-0.33,0.44-0.49,0.66c-0.15,0.22-0.31,0.44-0.45,0.67c-0.04,0.06-0.07,0.11-0.11,0.17l-0.05,0.08l-0.05,0.08
				c-0.07,0.11-0.14,0.22-0.2,0.34c-0.07,0.11-0.13,0.23-0.19,0.34c-0.03,0.06-0.06,0.11-0.1,0.17c-0.03,0.06-0.06,0.11-0.09,0.17
				c-0.06,0.11-0.12,0.22-0.18,0.34c-0.06,0.11-0.11,0.23-0.17,0.34c-0.03,0.06-0.06,0.11-0.08,0.17c-0.03,0.06-0.05,0.11-0.08,0.17
				c-0.05,0.11-0.1,0.22-0.15,0.34c-0.39,0.9-0.7,1.78-0.92,2.63c-0.23,0.86-0.38,1.68-0.47,2.47c-0.09,0.78-0.13,1.52-0.13,2.21
				c0,0.69,0.04,1.32,0.11,1.9c0.01,0.07,0.01,0.14,0.02,0.21c0.01,0.07,0.02,0.14,0.03,0.21c0.02,0.14,0.04,0.27,0.06,0.4
				c0.02,0.13,0.04,0.26,0.06,0.38c0.01,0.06,0.02,0.12,0.03,0.18c0.01,0.06,0.02,0.12,0.04,0.18c0.02,0.12,0.05,0.23,0.07,0.34
				c0.02,0.11,0.05,0.21,0.07,0.31c0.02,0.1,0.05,0.2,0.07,0.29c0.02,0.09,0.05,0.18,0.07,0.27c0.02,0.09,0.05,0.17,0.07,0.25
				c0.01,0.04,0.02,0.08,0.03,0.12c0.01,0.04,0.02,0.07,0.03,0.11c0.04,0.14,0.08,0.27,0.12,0.39c0.03,0.12,0.07,0.22,0.1,0.3
				c0.03,0.09,0.05,0.16,0.08,0.22c0.04,0.12,0.06,0.18,0.06,0.18s0.09,0.24,0.27,0.69c0.04,0.11,0.1,0.24,0.16,0.38
				c0.06,0.14,0.13,0.29,0.2,0.46c0.04,0.08,0.08,0.17,0.12,0.25c0.04,0.09,0.09,0.18,0.14,0.27c0.05,0.09,0.1,0.19,0.15,0.29
				c0.02,0.05,0.05,0.1,0.08,0.15c0.03,0.05,0.06,0.1,0.09,0.15c0.46,0.83,1.09,1.82,1.97,2.87c0.11,0.13,0.22,0.26,0.34,0.4
				c0.12,0.13,0.24,0.26,0.37,0.4c0.06,0.07,0.13,0.14,0.19,0.2c0.07,0.07,0.13,0.13,0.2,0.2c0.14,0.13,0.27,0.27,0.41,0.41
				c0.58,0.53,1.22,1.08,1.93,1.59c0.72,0.51,1.51,1,2.38,1.45c0.11,0.05,0.22,0.11,0.33,0.16c0.06,0.03,0.11,0.05,0.17,0.08
				c0.06,0.03,0.11,0.06,0.17,0.08c0.23,0.1,0.46,0.2,0.69,0.3c0.24,0.09,0.48,0.19,0.72,0.28c0.12,0.05,0.25,0.09,0.37,0.13
				c0.12,0.04,0.25,0.08,0.38,0.13c1.01,0.32,2.1,0.57,3.24,0.72c1.14,0.15,2.33,0.2,3.56,0.12c1.23-0.08,2.48-0.27,3.74-0.6
				c0.16-0.04,0.32-0.08,0.47-0.13c0.16-0.05,0.31-0.09,0.47-0.14c0.16-0.05,0.31-0.1,0.47-0.15c0.16-0.05,0.31-0.11,0.47-0.16
				c0.62-0.23,1.24-0.48,1.85-0.76c1.23-0.56,2.43-1.22,3.61-1.96c1.18-0.74,2.35-1.55,3.49-2.43c2.29-1.75,4.53-3.72,6.76-5.82
				c2.02-1.9,4.04-3.91,6.11-5.95c2.03,2.03,4.09,4.08,6.26,6.06c0.65,0.59,1.3,1.17,1.97,1.74c0.67,0.57,1.34,1.14,2.04,1.68
				c0.69,0.54,1.4,1.08,2.12,1.59c0.72,0.51,1.46,1,2.22,1.46c0.19,0.11,0.38,0.23,0.57,0.34c0.19,0.11,0.39,0.22,0.58,0.33
				l0.14,0.08l0.15,0.08l0.29,0.16c0.1,0.05,0.2,0.1,0.29,0.15l0.3,0.15c0.79,0.4,1.61,0.75,2.43,1.06
				c1.66,0.62,3.39,1.05,5.16,1.21l0.33,0.03l0.33,0.02c0.11,0.01,0.22,0.01,0.33,0.01c0.11,0,0.22,0.01,0.33,0.01l0.33,0
				c0.11,0,0.22,0,0.33-0.01c0.06,0,0.11,0,0.17,0l0.17-0.01c0.11-0.01,0.22-0.01,0.33-0.02l0.33-0.03l0.33-0.03
				c0.11-0.01,0.22-0.03,0.33-0.04c0.11-0.01,0.22-0.03,0.33-0.05c0.44-0.07,0.87-0.15,1.3-0.26c0.86-0.21,1.7-0.5,2.51-0.86
				c0.41-0.18,0.8-0.38,1.19-0.59c0.39-0.22,0.77-0.45,1.14-0.7c0.74-0.5,1.44-1.06,2.08-1.68c0.32-0.31,0.64-0.63,0.93-0.96
				c0.3-0.33,0.58-0.68,0.85-1.04c1.09-1.43,1.95-3.03,2.56-4.72c0.31-0.85,0.55-1.72,0.72-2.6c0.17-0.88,0.28-1.78,0.32-2.67
				C92.41,21.68,92.38,20.78,92.27,19.9z"/>
		</g>
		<g>
			<path class="st0" d="M91.23,20.02c-0.05-0.41-0.12-0.83-0.2-1.23c-0.09-0.41-0.19-0.81-0.31-1.21c-0.24-0.8-0.55-1.56-0.92-2.3
				c-0.19-0.37-0.39-0.73-0.61-1.08c-0.06-0.09-0.11-0.18-0.17-0.26l-0.17-0.26c-0.12-0.17-0.24-0.34-0.36-0.5
				c-0.99-1.32-2.22-2.47-3.59-3.42c-0.69-0.48-1.41-0.9-2.16-1.29c-0.09-0.05-0.19-0.09-0.28-0.14c-0.09-0.04-0.19-0.09-0.28-0.14
				c-0.19-0.08-0.38-0.17-0.57-0.25c-0.38-0.16-0.77-0.3-1.16-0.44C78.89,7,77.29,6.74,75.68,6.77c-1.6,0.03-3.2,0.33-4.75,0.85
				c-0.39,0.13-0.77,0.27-1.15,0.42c-0.19,0.07-0.38,0.16-0.57,0.24L68.92,8.4l-0.14,0.06l-0.14,0.07l-0.28,0.13L68.08,8.8
				l-0.14,0.07l-0.14,0.07l-0.28,0.14c-0.37,0.19-0.73,0.39-1.09,0.6c-0.72,0.42-1.43,0.86-2.12,1.33
				c-0.63,0.42-1.25,0.87-1.85,1.32c0.12,0.13,0.24,0.25,0.34,0.4c0.59-0.44,1.19-0.88,1.81-1.29c0.68-0.46,1.38-0.9,2.09-1.31
				c0.35-0.21,0.71-0.4,1.07-0.59l0.27-0.14l0.14-0.07l0.14-0.07l0.27-0.13L68.86,9L69,8.94l0.14-0.06l0.28-0.12
				c0.19-0.08,0.37-0.16,0.56-0.23c0.37-0.15,0.75-0.28,1.12-0.41c1.51-0.5,3.05-0.79,4.6-0.82c1.54-0.03,3.09,0.22,4.59,0.72
				c0.37,0.13,0.75,0.26,1.12,0.42c0.19,0.07,0.37,0.16,0.55,0.24c0.09,0.04,0.18,0.09,0.27,0.13c0.09,0.05,0.18,0.09,0.27,0.13
				c0.73,0.37,1.44,0.79,2.1,1.25c1.33,0.92,2.52,2.03,3.47,3.3c0.12,0.16,0.23,0.32,0.35,0.48l0.17,0.25
				c0.06,0.08,0.11,0.17,0.16,0.25c0.21,0.34,0.41,0.68,0.59,1.04c0.36,0.71,0.66,1.45,0.89,2.22c0.11,0.38,0.21,0.77,0.3,1.16
				c0.08,0.39,0.15,0.79,0.2,1.19c0.1,0.8,0.13,1.61,0.1,2.43c-0.03,0.81-0.13,1.63-0.29,2.43c-0.16,0.8-0.38,1.6-0.66,2.37
				c-0.56,1.55-1.35,3.01-2.34,4.31c-0.25,0.32-0.51,0.64-0.78,0.94c-0.27,0.3-0.55,0.59-0.85,0.87c-0.58,0.56-1.22,1.06-1.88,1.51
				c-0.33,0.23-0.67,0.43-1.02,0.63c-0.35,0.19-0.7,0.37-1.07,0.53c-0.73,0.32-1.48,0.58-2.25,0.77c-1.54,0.38-3.15,0.48-4.75,0.34
				c-1.6-0.15-3.21-0.54-4.75-1.12c-0.77-0.29-1.54-0.62-2.28-1l-0.28-0.14c-0.09-0.05-0.19-0.09-0.28-0.14l-0.28-0.15l-0.14-0.07
				l-0.14-0.08c-0.18-0.1-0.37-0.21-0.55-0.31c-0.18-0.11-0.36-0.22-0.54-0.33c-0.72-0.44-1.43-0.91-2.13-1.41
				c-0.7-0.49-1.38-1.01-2.05-1.54c-0.67-0.53-1.33-1.08-1.99-1.64c-0.65-0.56-1.3-1.13-1.93-1.71c-1.88-1.71-3.69-3.49-5.47-5.27
				c0.26-0.25,0.52-0.51,0.78-0.76c-0.1-0.14-0.22-0.28-0.37-0.37c-0.26,0.26-0.52,0.51-0.78,0.76c-0.51-0.51-1.01-1.01-1.52-1.52
				c-0.73-0.73-1.46-1.46-2.18-2.18c-0.13,0.12-0.27,0.22-0.39,0.34c0.74,0.73,1.47,1.46,2.21,2.2c0.5,0.5,1.01,1.01,1.51,1.52
				c-0.03,0.03-0.07,0.07-0.1,0.1c-2.29,2.26-4.52,4.49-6.76,6.59c-2.24,2.1-4.48,4.09-6.8,5.85c-1.16,0.88-2.33,1.71-3.53,2.45
				c-1.2,0.75-2.42,1.42-3.67,1.99c-0.62,0.29-1.26,0.55-1.89,0.78c-0.16,0.06-0.32,0.11-0.48,0.17c-0.16,0.06-0.32,0.11-0.48,0.16
				c-0.16,0.05-0.32,0.1-0.48,0.15c-0.16,0.05-0.32,0.09-0.48,0.13c-1.29,0.34-2.58,0.54-3.84,0.62c-1.26,0.08-2.49,0.03-3.66-0.12
				c-1.17-0.15-2.29-0.41-3.33-0.74c-0.13-0.04-0.26-0.09-0.39-0.13c-0.13-0.04-0.26-0.08-0.38-0.13c-0.25-0.1-0.5-0.19-0.74-0.29
				c-0.24-0.11-0.48-0.21-0.71-0.31c-0.06-0.02-0.12-0.05-0.17-0.08c-0.06-0.03-0.11-0.06-0.17-0.08c-0.11-0.06-0.23-0.11-0.34-0.17
				c-0.89-0.46-1.71-0.96-2.45-1.49c-0.74-0.53-1.39-1.09-1.99-1.64c-0.14-0.14-0.29-0.28-0.42-0.42c-0.07-0.07-0.14-0.14-0.21-0.21
				c-0.07-0.07-0.13-0.14-0.19-0.21c-0.13-0.14-0.25-0.28-0.38-0.41c-0.12-0.14-0.23-0.28-0.35-0.41c-0.9-1.08-1.55-2.1-2.02-2.95
				c-0.03-0.05-0.06-0.11-0.09-0.16c-0.03-0.05-0.06-0.1-0.08-0.15c-0.05-0.1-0.1-0.2-0.15-0.3c-0.05-0.1-0.09-0.19-0.14-0.28
				c-0.04-0.09-0.09-0.18-0.13-0.26c-0.08-0.17-0.15-0.33-0.21-0.47C4.1,29.73,4.04,29.6,4,29.49c-0.18-0.47-0.28-0.71-0.28-0.71
				l0,0c0,0-0.02-0.06-0.06-0.18c-0.02-0.06-0.05-0.13-0.08-0.22c-0.03-0.09-0.07-0.19-0.1-0.31c-0.04-0.12-0.08-0.25-0.12-0.4
				c-0.01-0.04-0.02-0.08-0.03-0.11c-0.01-0.04-0.02-0.08-0.03-0.12c-0.02-0.08-0.05-0.17-0.07-0.26c-0.02-0.09-0.05-0.18-0.07-0.28
				c-0.02-0.1-0.05-0.2-0.07-0.3c-0.02-0.1-0.05-0.21-0.08-0.32c-0.02-0.11-0.05-0.23-0.07-0.35c-0.01-0.06-0.02-0.12-0.04-0.18
				c-0.01-0.06-0.02-0.12-0.03-0.19c-0.02-0.13-0.04-0.26-0.07-0.39c-0.02-0.13-0.04-0.27-0.06-0.41c-0.01-0.07-0.02-0.14-0.03-0.21
				c-0.01-0.07-0.02-0.15-0.02-0.22c-0.07-0.6-0.11-1.25-0.11-1.96c0-0.71,0.03-1.47,0.13-2.28c0.1-0.81,0.25-1.66,0.49-2.54
				c0.23-0.88,0.55-1.79,0.95-2.71c0.05-0.11,0.1-0.23,0.16-0.34c0.03-0.06,0.05-0.12,0.08-0.17c0.03-0.06,0.06-0.11,0.08-0.17
				c0.06-0.11,0.11-0.23,0.17-0.35c0.06-0.11,0.12-0.23,0.18-0.35c0.03-0.06,0.06-0.12,0.09-0.17c0.03-0.06,0.07-0.11,0.1-0.17
				c0.07-0.11,0.13-0.23,0.2-0.35c0.07-0.11,0.14-0.23,0.21-0.34l0.05-0.09l0.06-0.09c0.04-0.06,0.07-0.11,0.11-0.17
				c0.15-0.23,0.31-0.46,0.46-0.68c0.16-0.22,0.33-0.45,0.51-0.68c0.09-0.11,0.17-0.23,0.27-0.33c0.09-0.11,0.18-0.22,0.28-0.33
				c0.1-0.11,0.19-0.22,0.29-0.33c0.05-0.06,0.1-0.11,0.15-0.16c0.05-0.05,0.1-0.11,0.15-0.16C8.12,8.95,8.54,8.53,9,8.12
				c0.46-0.41,0.94-0.8,1.44-1.17c0.51-0.38,1.04-0.73,1.6-1.06s1.15-0.64,1.76-0.92c1.22-0.57,2.54-1.01,3.94-1.31
				c0.7-0.15,1.42-0.25,2.15-0.32c0.09-0.01,0.18-0.02,0.27-0.02c0.09-0.01,0.18-0.01,0.28-0.02c0.09,0,0.18-0.01,0.28-0.01
				c0.09,0,0.19,0,0.28-0.01c0.09,0,0.19,0,0.28-0.01c0.09,0,0.19,0,0.28,0c0.09,0,0.19,0,0.28,0l0.07,0l0.07,0l0.14,0.01
				c0.18,0.01,0.37,0.02,0.56,0.03c0.09,0,0.19,0.01,0.28,0.02c0.09,0.01,0.19,0.02,0.28,0.03c0.37,0.03,0.74,0.08,1.12,0.13
				c0.74,0.12,1.49,0.26,2.23,0.45c0.09,0.02,0.19,0.05,0.28,0.07c0.09,0.02,0.18,0.05,0.28,0.08c0.18,0.05,0.37,0.11,0.55,0.16
				c0.18,0.06,0.37,0.12,0.55,0.18c0.09,0.03,0.18,0.06,0.28,0.09c0.09,0.03,0.18,0.07,0.27,0.1c0.18,0.07,0.36,0.13,0.55,0.2
				c0.18,0.07,0.36,0.15,0.54,0.22c0.18,0.07,0.36,0.15,0.54,0.23c0.09,0.04,0.18,0.08,0.27,0.12c0.09,0.04,0.18,0.08,0.27,0.12
				c0.18,0.08,0.35,0.17,0.53,0.25l0.13,0.06l0.13,0.07C31.81,5.95,31.9,6,31.99,6.04c0.35,0.18,0.69,0.37,1.04,0.56
				c0.17,0.1,0.34,0.2,0.51,0.29c0.09,0.05,0.17,0.1,0.26,0.15c0.09,0.05,0.17,0.1,0.25,0.15c0.17,0.1,0.34,0.21,0.51,0.31
				c0.17,0.11,0.33,0.21,0.5,0.32c0.08,0.05,0.17,0.11,0.25,0.16c0.08,0.06,0.17,0.11,0.25,0.17c0.17,0.11,0.33,0.22,0.5,0.33
				c0.33,0.23,0.66,0.46,0.98,0.69c0.52,0.37,1.03,0.76,1.53,1.16c0.14-0.11,0.28-0.23,0.34-0.39c-0.52-0.41-1.04-0.8-1.57-1.19
				c-0.32-0.24-0.66-0.47-0.99-0.7c-0.17-0.11-0.34-0.23-0.5-0.34c-0.08-0.06-0.17-0.11-0.25-0.17c-0.08-0.05-0.17-0.11-0.25-0.16
				C35.17,7.28,35,7.17,34.83,7.06c-0.17-0.1-0.34-0.21-0.51-0.31c-0.09-0.05-0.17-0.11-0.26-0.16c-0.09-0.05-0.17-0.1-0.26-0.15
				c-0.17-0.1-0.35-0.2-0.52-0.3c-0.35-0.19-0.7-0.39-1.06-0.56c-0.09-0.05-0.18-0.09-0.27-0.14l-0.13-0.07l-0.14-0.06
				c-0.18-0.09-0.36-0.17-0.54-0.26c-0.09-0.04-0.18-0.08-0.27-0.12c-0.09-0.04-0.18-0.08-0.27-0.12c-0.18-0.08-0.36-0.16-0.55-0.23
				c-0.18-0.07-0.37-0.15-0.55-0.22c-0.18-0.07-0.37-0.14-0.56-0.21c-0.09-0.03-0.19-0.07-0.28-0.1c-0.09-0.03-0.19-0.06-0.28-0.09
				c-0.19-0.06-0.37-0.12-0.56-0.18c-0.19-0.06-0.38-0.11-0.57-0.17c-0.09-0.03-0.19-0.06-0.28-0.08c-0.1-0.02-0.19-0.05-0.29-0.07
				c-0.76-0.2-1.52-0.35-2.29-0.46c-0.38-0.05-0.76-0.11-1.15-0.14c-0.1-0.01-0.19-0.02-0.29-0.03c-0.1-0.01-0.19-0.02-0.29-0.02
				c-0.19-0.01-0.38-0.02-0.57-0.03l-0.14-0.01l-0.07,0l-0.07,0c-0.1,0-0.19,0-0.29,0c-0.1,0-0.19,0-0.29,0c-0.1,0-0.19,0-0.29,0.01
				c-0.1,0-0.19,0-0.29,0.01c-0.1,0-0.19,0.01-0.28,0.01c-0.09,0.01-0.19,0.01-0.28,0.02c-0.09,0.01-0.19,0.02-0.28,0.02
				C19.09,2.88,18.35,3,17.63,3.15c-1.44,0.3-2.8,0.76-4.05,1.34c-0.63,0.29-1.23,0.61-1.8,0.95c-0.58,0.34-1.13,0.71-1.65,1.09
				c-0.52,0.38-1.01,0.79-1.48,1.2c-0.47,0.42-0.9,0.85-1.32,1.29c-0.05,0.06-0.1,0.11-0.15,0.17C7.13,9.25,7.08,9.3,7.03,9.36
				c-0.1,0.11-0.2,0.23-0.29,0.34c-0.1,0.11-0.19,0.23-0.28,0.34c-0.09,0.11-0.18,0.23-0.27,0.34C6,10.61,5.83,10.84,5.66,11.07
				c-0.16,0.24-0.33,0.47-0.48,0.7c-0.04,0.06-0.08,0.12-0.11,0.18l-0.06,0.09l-0.05,0.09c-0.07,0.12-0.14,0.24-0.22,0.35
				c-0.07,0.12-0.14,0.24-0.2,0.36c-0.03,0.06-0.07,0.12-0.1,0.18c-0.03,0.06-0.06,0.12-0.1,0.18c-0.06,0.12-0.13,0.24-0.19,0.35
				c-0.06,0.12-0.12,0.24-0.18,0.36c-0.03,0.06-0.06,0.12-0.09,0.18c-0.03,0.06-0.05,0.12-0.08,0.18c-0.05,0.12-0.11,0.24-0.16,0.35
				c-0.41,0.95-0.73,1.88-0.97,2.78c-0.24,0.91-0.4,1.78-0.5,2.61c-0.1,0.83-0.14,1.61-0.13,2.34c0,0.73,0.04,1.4,0.12,2.01
				c0.01,0.08,0.01,0.15,0.03,0.23c0.01,0.07,0.02,0.15,0.03,0.22c0.02,0.15,0.04,0.29,0.06,0.43c0.02,0.14,0.05,0.27,0.07,0.4
				c0.01,0.07,0.02,0.13,0.03,0.19c0.01,0.06,0.03,0.13,0.04,0.19c0.03,0.12,0.05,0.24,0.07,0.36c0.02,0.12,0.05,0.23,0.08,0.33
				c0.03,0.11,0.05,0.21,0.07,0.31c0.02,0.1,0.05,0.19,0.08,0.29c0.03,0.09,0.05,0.18,0.07,0.26c0.01,0.04,0.02,0.08,0.03,0.12
				c0.01,0.04,0.02,0.08,0.04,0.12c0.05,0.15,0.09,0.29,0.13,0.41c0.04,0.12,0.08,0.23,0.11,0.32c0.03,0.09,0.06,0.17,0.08,0.23
				c0.04,0.12,0.06,0.19,0.06,0.19s0.1,0.25,0.28,0.73c0.04,0.12,0.11,0.25,0.17,0.4c0.07,0.15,0.14,0.31,0.21,0.48
				c0.04,0.09,0.08,0.18,0.13,0.27c0.05,0.09,0.09,0.19,0.14,0.29c0.05,0.1,0.1,0.2,0.15,0.31c0.03,0.05,0.06,0.1,0.09,0.16
				c0.03,0.05,0.06,0.11,0.09,0.16c0.48,0.88,1.15,1.92,2.08,3.04c0.12,0.14,0.24,0.28,0.36,0.42c0.13,0.14,0.26,0.28,0.39,0.42
				c0.07,0.07,0.13,0.14,0.2,0.22c0.07,0.07,0.14,0.14,0.21,0.21c0.14,0.14,0.29,0.28,0.44,0.43c0.61,0.56,1.28,1.14,2.04,1.68
				c0.76,0.54,1.6,1.06,2.51,1.53c0.12,0.06,0.23,0.11,0.35,0.17c0.06,0.03,0.12,0.06,0.18,0.09c0.06,0.03,0.12,0.06,0.18,0.08
				c0.24,0.11,0.49,0.21,0.73,0.32c0.25,0.1,0.5,0.2,0.76,0.3c0.13,0.05,0.26,0.09,0.39,0.14c0.13,0.04,0.26,0.09,0.4,0.13
				c1.07,0.34,2.22,0.6,3.42,0.76c1.2,0.16,2.46,0.21,3.76,0.13c1.29-0.08,2.62-0.29,3.94-0.64c0.17-0.04,0.33-0.08,0.5-0.13
				c0.16-0.05,0.33-0.1,0.49-0.15c0.16-0.05,0.33-0.1,0.49-0.16c0.16-0.06,0.33-0.11,0.49-0.17c0.65-0.24,1.29-0.5,1.93-0.79
				c1.27-0.58,2.52-1.27,3.73-2.03c1.22-0.76,2.4-1.59,3.57-2.48c2.34-1.78,4.59-3.78,6.84-5.89c2.25-2.11,4.48-4.34,6.77-6.6
				c0.03-0.03,0.07-0.07,0.1-0.1c1.79,1.78,3.6,3.57,5.49,5.29c0.64,0.58,1.28,1.16,1.94,1.72c0.66,0.56,1.32,1.12,2,1.65
				c0.68,0.53,1.37,1.06,2.08,1.56c0.71,0.5,1.42,0.98,2.16,1.43c0.18,0.11,0.37,0.22,0.55,0.33c0.19,0.11,0.37,0.21,0.56,0.32
				l0.14,0.08l0.14,0.08l0.28,0.15c0.09,0.05,0.19,0.1,0.28,0.15l0.28,0.15c0.76,0.38,1.54,0.72,2.33,1.02
				c1.58,0.59,3.23,1,4.89,1.15c1.66,0.15,3.32,0.05,4.92-0.35c0.8-0.19,1.58-0.47,2.34-0.8c0.38-0.17,0.75-0.35,1.11-0.55
				c0.36-0.2,0.72-0.42,1.06-0.65c0.69-0.47,1.34-0.99,1.95-1.57c0.3-0.29,0.6-0.59,0.88-0.9c0.28-0.31,0.55-0.64,0.8-0.97
				c1.02-1.34,1.84-2.85,2.41-4.45c0.29-0.8,0.51-1.62,0.68-2.45c0.16-0.83,0.27-1.67,0.3-2.51C91.37,21.69,91.34,20.85,91.23,20.02
				z"/>
		</g>
		<g>
			<path class="st0" d="M90.2,20.15c-0.05-0.39-0.11-0.77-0.19-1.15c-0.08-0.38-0.18-0.75-0.29-1.12c-0.22-0.74-0.51-1.45-0.85-2.13
				c-0.17-0.34-0.36-0.67-0.56-1c-0.05-0.08-0.1-0.16-0.15-0.24L88,14.27c-0.11-0.16-0.22-0.31-0.34-0.47
				c-0.92-1.22-2.06-2.29-3.35-3.19c-0.64-0.45-1.33-0.85-2.04-1.21C82.18,9.36,82.09,9.32,82,9.28c-0.09-0.04-0.18-0.09-0.27-0.13
				c-0.18-0.08-0.36-0.16-0.54-0.24c-0.36-0.15-0.72-0.28-1.08-0.41c-1.45-0.49-2.93-0.72-4.42-0.69c-1.49,0.02-2.98,0.31-4.44,0.79
				c-0.37,0.12-0.73,0.25-1.09,0.4c-0.18,0.07-0.36,0.15-0.54,0.22l-0.27,0.12l-0.13,0.06l-0.13,0.06L68.81,9.6l-0.27,0.13
				l-0.13,0.07l-0.13,0.07L68.01,10c-0.35,0.19-0.7,0.38-1.05,0.58c-0.7,0.4-1.38,0.84-2.06,1.29c-0.59,0.4-1.17,0.82-1.75,1.25
				c0.11,0.13,0.22,0.27,0.33,0.4c0.56-0.42,1.13-0.83,1.71-1.21c0.67-0.45,1.34-0.88,2.03-1.27c0.34-0.2,0.69-0.39,1.03-0.57
				l0.26-0.13l0.13-0.07l0.13-0.06l0.26-0.13l0.26-0.12l0.13-0.06l0.13-0.06l0.26-0.12c0.18-0.07,0.35-0.15,0.53-0.22
				c0.35-0.14,0.71-0.27,1.07-0.39c1.43-0.47,2.86-0.74,4.29-0.77c1.43-0.02,2.84,0.2,4.24,0.67c0.35,0.12,0.7,0.25,1.04,0.4
				c0.17,0.07,0.35,0.15,0.52,0.23c0.09,0.04,0.17,0.08,0.26,0.12c0.09,0.04,0.17,0.08,0.26,0.13c0.69,0.35,1.36,0.74,1.98,1.18
				c1.25,0.86,2.35,1.89,3.23,3.07c0.11,0.15,0.22,0.3,0.32,0.45l0.15,0.23c0.05,0.08,0.1,0.16,0.15,0.23
				c0.19,0.31,0.37,0.63,0.54,0.96c0.33,0.66,0.61,1.34,0.82,2.05c0.11,0.35,0.2,0.71,0.28,1.08c0.08,0.36,0.14,0.73,0.18,1.1
				c0.09,0.74,0.12,1.5,0.09,2.26c-0.03,0.76-0.12,1.52-0.27,2.27c-0.15,0.75-0.36,1.5-0.62,2.22c-0.52,1.45-1.26,2.82-2.19,4.03
				c-0.23,0.3-0.47,0.6-0.72,0.88c-0.25,0.28-0.52,0.55-0.79,0.81c-0.54,0.52-1.13,0.99-1.74,1.4c-0.31,0.21-0.62,0.4-0.95,0.58
				c-0.32,0.18-0.65,0.34-0.99,0.49c-0.67,0.29-1.36,0.54-2.08,0.71c-1.42,0.35-2.91,0.45-4.41,0.31c-1.5-0.14-3.01-0.5-4.48-1.06
				c-0.74-0.28-1.47-0.59-2.18-0.95l-0.27-0.14c-0.09-0.05-0.18-0.09-0.27-0.14l-0.27-0.14l-0.13-0.07L67.3,33.6
				c-0.18-0.1-0.35-0.2-0.53-0.3c-0.18-0.11-0.35-0.21-0.53-0.32c-0.7-0.43-1.39-0.89-2.07-1.37c-0.68-0.48-1.35-0.99-2.01-1.51
				c-0.66-0.52-1.31-1.06-1.96-1.61c-0.64-0.55-1.28-1.12-1.91-1.69c-1.6-1.46-3.15-2.97-4.69-4.49c0.02-0.02,0.03-0.03,0.05-0.05
				c-0.11-0.14-0.21-0.28-0.35-0.38c-0.02,0.02-0.05,0.04-0.07,0.07c-0.76-0.75-1.51-1.51-2.26-2.26c-0.34-0.35-0.69-0.69-1.03-1.03
				c-0.01,0-0.01-0.01-0.02-0.02c0,0-0.01-0.01-0.01-0.01c-0.38-0.38-0.75-0.75-1.13-1.13c-0.13,0.11-0.26,0.23-0.37,0.36
				c0.73,0.73,1.47,1.46,2.2,2.2c0.75,0.75,1.5,1.5,2.25,2.26c-0.28,0.28-0.57,0.56-0.85,0.83c-2.29,2.26-4.53,4.49-6.78,6.61
				c-2.25,2.12-4.52,4.13-6.88,5.92c-1.18,0.9-2.38,1.74-3.61,2.51c-1.23,0.77-2.49,1.46-3.79,2.06c-0.65,0.3-1.31,0.57-1.97,0.81
				c-0.16,0.06-0.33,0.12-0.5,0.18c-0.17,0.06-0.33,0.11-0.5,0.16c-0.17,0.05-0.34,0.1-0.5,0.15c-0.17,0.05-0.34,0.09-0.51,0.14
				c-1.36,0.36-2.71,0.57-4.04,0.65c-1.33,0.08-2.62,0.03-3.86-0.13c-1.24-0.16-2.41-0.43-3.51-0.78c-0.14-0.05-0.27-0.09-0.41-0.14
				c-0.14-0.05-0.27-0.09-0.4-0.14c-0.26-0.1-0.53-0.2-0.78-0.3c-0.25-0.11-0.5-0.22-0.75-0.33c-0.06-0.03-0.12-0.06-0.18-0.09
				c-0.06-0.03-0.12-0.06-0.18-0.09c-0.12-0.06-0.24-0.12-0.36-0.18c-0.94-0.48-1.8-1.02-2.58-1.57c-0.78-0.56-1.47-1.15-2.09-1.73
				c-0.15-0.15-0.3-0.3-0.45-0.44c-0.07-0.07-0.15-0.14-0.22-0.22c-0.07-0.07-0.14-0.15-0.21-0.22c-0.14-0.15-0.27-0.29-0.4-0.43
				c-0.13-0.15-0.25-0.29-0.37-0.43c-0.95-1.14-1.64-2.22-2.13-3.12c-0.03-0.06-0.06-0.11-0.09-0.17c-0.03-0.05-0.06-0.11-0.09-0.16
				c-0.05-0.11-0.11-0.21-0.16-0.31c-0.05-0.1-0.1-0.2-0.15-0.29c-0.05-0.09-0.09-0.18-0.13-0.28c-0.08-0.18-0.15-0.34-0.22-0.49
				C3.14,30.14,3.08,30,3.03,29.88c-0.19-0.5-0.29-0.75-0.29-0.75l-0.49,0.18c0,0,0.1,0.26,0.3,0.77c0.05,0.13,0.11,0.27,0.18,0.42
				C2.8,30.65,2.88,30.82,2.96,31C3,31.1,3.05,31.19,3.09,31.29c0.05,0.1,0.1,0.2,0.15,0.3c0.05,0.1,0.11,0.21,0.16,0.32
				c0.03,0.06,0.06,0.11,0.09,0.17c0.03,0.06,0.06,0.11,0.1,0.17c0.51,0.92,1.21,2.03,2.19,3.2c0.12,0.15,0.25,0.3,0.38,0.45
				c0.13,0.15,0.27,0.29,0.41,0.44c0.07,0.08,0.14,0.15,0.21,0.23c0.07,0.07,0.15,0.15,0.22,0.22c0.15,0.15,0.3,0.3,0.46,0.45
				c0.64,0.59,1.35,1.2,2.15,1.77c0.8,0.57,1.68,1.12,2.64,1.61c0.12,0.06,0.24,0.12,0.37,0.18c0.06,0.03,0.12,0.06,0.19,0.09
				c0.06,0.03,0.12,0.06,0.19,0.09c0.25,0.11,0.51,0.22,0.77,0.34c0.26,0.11,0.53,0.21,0.8,0.31c0.13,0.05,0.27,0.1,0.41,0.14
				c0.14,0.05,0.28,0.09,0.42,0.14c1.13,0.36,2.33,0.64,3.6,0.8c1.27,0.16,2.6,0.22,3.96,0.13c1.36-0.08,2.75-0.3,4.14-0.67
				c0.17-0.04,0.35-0.09,0.52-0.14c0.17-0.05,0.35-0.1,0.52-0.16c0.17-0.05,0.34-0.11,0.51-0.17c0.17-0.06,0.34-0.12,0.51-0.18
				c0.68-0.25,1.35-0.52,2.01-0.82c1.32-0.6,2.6-1.31,3.85-2.09c1.25-0.78,2.46-1.63,3.65-2.54c2.38-1.81,4.66-3.83,6.92-5.96
				c2.26-2.13,4.5-4.36,6.79-6.62c0.28-0.28,0.57-0.56,0.85-0.84c1.54,1.53,3.1,3.05,4.71,4.52c0.63,0.57,1.27,1.15,1.92,1.7
				c0.65,0.55,1.3,1.1,1.97,1.63c0.67,0.52,1.34,1.04,2.03,1.52c0.69,0.49,1.39,0.95,2.1,1.39c0.18,0.11,0.36,0.21,0.54,0.32
				c0.18,0.1,0.36,0.2,0.54,0.31l0.14,0.08l0.14,0.07l0.27,0.15c0.09,0.05,0.18,0.1,0.27,0.14l0.27,0.14
				c0.73,0.37,1.48,0.69,2.23,0.97c1.51,0.57,3.07,0.95,4.62,1.09c1.55,0.14,3.1,0.04,4.58-0.32c0.74-0.18,1.46-0.43,2.16-0.74
				c0.35-0.16,0.69-0.33,1.03-0.51c0.34-0.19,0.66-0.39,0.98-0.6c0.64-0.43,1.25-0.92,1.81-1.46c0.28-0.27,0.56-0.55,0.82-0.84
				c0.26-0.29,0.51-0.6,0.75-0.91c0.96-1.25,1.72-2.67,2.26-4.17c0.27-0.75,0.48-1.52,0.64-2.29c0.15-0.78,0.25-1.57,0.28-2.35
				C90.33,21.71,90.3,20.92,90.2,20.15z"/>
			<path class="st0" d="M39.59,9.16c-0.54-0.42-1.09-0.84-1.64-1.24c-0.33-0.25-0.67-0.48-1.01-0.72c-0.17-0.12-0.34-0.23-0.51-0.35
				c-0.09-0.06-0.17-0.11-0.26-0.17c-0.09-0.06-0.17-0.11-0.26-0.17c-0.17-0.11-0.35-0.22-0.52-0.33c-0.18-0.11-0.35-0.22-0.53-0.32
				c-0.09-0.05-0.18-0.11-0.26-0.16c-0.09-0.05-0.18-0.1-0.27-0.16c-0.18-0.1-0.36-0.21-0.54-0.31c-0.36-0.2-0.72-0.4-1.09-0.58
				c-0.09-0.05-0.18-0.09-0.27-0.14l-0.14-0.07l-0.14-0.07c-0.19-0.09-0.37-0.18-0.56-0.27c-0.09-0.04-0.19-0.09-0.28-0.13
				c-0.09-0.04-0.19-0.08-0.28-0.12c-0.19-0.08-0.38-0.17-0.57-0.24c-0.19-0.08-0.38-0.15-0.57-0.23c-0.19-0.07-0.39-0.14-0.58-0.21
				c-0.1-0.04-0.19-0.07-0.29-0.11c-0.1-0.03-0.2-0.07-0.29-0.1c-0.2-0.06-0.39-0.13-0.58-0.19c-0.2-0.06-0.39-0.12-0.59-0.17
				c-0.1-0.03-0.2-0.06-0.3-0.08c-0.1-0.03-0.2-0.05-0.3-0.08c-0.79-0.21-1.59-0.36-2.39-0.49c-0.4-0.05-0.8-0.11-1.2-0.14
				c-0.1-0.01-0.2-0.02-0.3-0.03c-0.1-0.01-0.2-0.02-0.3-0.02c-0.2-0.01-0.4-0.02-0.6-0.03l-0.15-0.01l-0.07,0l-0.08,0
				c-0.1,0-0.2,0-0.31,0c-0.1,0-0.2,0-0.3,0c-0.1,0-0.2,0-0.3,0.01c-0.1,0-0.2,0-0.3,0.01c-0.1,0.01-0.2,0.01-0.3,0.02
				c-0.1,0.01-0.2,0.01-0.3,0.02c-0.1,0.01-0.2,0.02-0.3,0.03c-0.8,0.07-1.57,0.18-2.33,0.34c-1.52,0.32-2.95,0.81-4.27,1.42
				c-0.66,0.31-1.29,0.64-1.9,1c-0.61,0.36-1.18,0.74-1.73,1.15C8.97,6.1,8.45,6.52,7.96,6.96C7.46,7.4,7,7.85,6.57,8.32
				C6.52,8.38,6.46,8.43,6.41,8.49C6.36,8.55,6.3,8.61,6.25,8.67C6.15,8.79,6.04,8.9,5.94,9.02c-0.1,0.12-0.2,0.24-0.3,0.36
				C5.55,9.5,5.45,9.62,5.36,9.74c-0.19,0.24-0.37,0.49-0.55,0.73c-0.17,0.25-0.34,0.49-0.5,0.74c-0.04,0.06-0.08,0.12-0.12,0.19
				l-0.06,0.09l-0.06,0.09C4,11.71,3.92,11.83,3.85,11.95c-0.07,0.12-0.14,0.25-0.22,0.37c-0.04,0.06-0.07,0.12-0.11,0.19
				c-0.03,0.06-0.07,0.13-0.1,0.19c-0.07,0.13-0.13,0.25-0.2,0.37c-0.06,0.13-0.12,0.25-0.19,0.38c-0.03,0.06-0.06,0.12-0.09,0.19
				c-0.03,0.06-0.06,0.13-0.09,0.19c-0.06,0.12-0.11,0.25-0.17,0.37c-0.43,1-0.77,1.98-1.03,2.93c-0.25,0.95-0.42,1.88-0.53,2.75
				C1.04,20.76,1,21.59,1,22.35c0,0.77,0.05,1.48,0.12,2.12c0.01,0.08,0.02,0.16,0.03,0.24c0.01,0.08,0.02,0.16,0.03,0.23
				c0.02,0.15,0.04,0.3,0.06,0.45c0.02,0.14,0.05,0.29,0.07,0.42c0.01,0.07,0.02,0.14,0.04,0.2c0.01,0.07,0.03,0.13,0.04,0.2
				c0.03,0.13,0.05,0.25,0.08,0.37c0.02,0.12,0.05,0.24,0.08,0.35c0.03,0.11,0.05,0.22,0.08,0.33c0.03,0.1,0.05,0.2,0.08,0.3
				c0.03,0.1,0.05,0.19,0.08,0.28c0.01,0.04,0.02,0.09,0.04,0.13c0.01,0.04,0.03,0.08,0.04,0.12c0.05,0.16,0.09,0.3,0.13,0.43
				c0.04,0.13,0.08,0.24,0.11,0.34c0.03,0.1,0.06,0.18,0.08,0.24c0.04,0.13,0.07,0.19,0.07,0.19l0.49-0.18c0,0-0.02-0.06-0.07-0.19
				C2.65,28.88,2.63,28.8,2.6,28.7c-0.03-0.09-0.07-0.2-0.11-0.33c-0.04-0.13-0.08-0.27-0.13-0.42c-0.01-0.04-0.02-0.08-0.04-0.12
				c-0.01-0.04-0.02-0.08-0.03-0.13c-0.02-0.09-0.05-0.18-0.07-0.27c-0.02-0.09-0.05-0.19-0.08-0.29c-0.02-0.1-0.05-0.21-0.08-0.32
				C2.03,26.71,2,26.6,1.98,26.48c-0.02-0.12-0.05-0.24-0.07-0.37c-0.01-0.06-0.03-0.13-0.04-0.19c-0.01-0.06-0.02-0.13-0.03-0.2
				c-0.02-0.13-0.05-0.27-0.07-0.41c-0.02-0.14-0.04-0.29-0.06-0.44c-0.01-0.07-0.02-0.15-0.03-0.23c-0.01-0.08-0.02-0.15-0.03-0.23
				c-0.07-0.63-0.11-1.32-0.12-2.07c0-0.75,0.04-1.55,0.14-2.41c0.1-0.85,0.27-1.75,0.51-2.68c0.25-0.93,0.58-1.89,1-2.86
				c0.05-0.12,0.11-0.24,0.17-0.36c0.03-0.06,0.06-0.12,0.08-0.18c0.03-0.06,0.06-0.12,0.09-0.18c0.06-0.12,0.12-0.24,0.18-0.37
				c0.06-0.12,0.13-0.24,0.19-0.36c0.03-0.06,0.07-0.12,0.1-0.18c0.03-0.06,0.07-0.12,0.1-0.18c0.07-0.12,0.14-0.24,0.21-0.36
				c0.07-0.12,0.15-0.24,0.22-0.36l0.06-0.09l0.06-0.09c0.04-0.06,0.08-0.12,0.12-0.18c0.15-0.24,0.32-0.48,0.49-0.72
				c0.17-0.24,0.35-0.48,0.53-0.71c0.09-0.12,0.18-0.24,0.28-0.35c0.1-0.12,0.19-0.23,0.29-0.35c0.1-0.11,0.2-0.23,0.3-0.35
				c0.05-0.06,0.1-0.11,0.15-0.17c0.05-0.06,0.1-0.11,0.16-0.17c0.42-0.45,0.87-0.9,1.35-1.32c0.48-0.43,0.99-0.84,1.52-1.24
				c0.53-0.4,1.1-0.77,1.69-1.12c0.59-0.35,1.21-0.68,1.85-0.98c1.29-0.6,2.68-1.07,4.16-1.38c0.74-0.15,1.5-0.27,2.27-0.33
				c0.1-0.01,0.19-0.02,0.29-0.02c0.1-0.01,0.19-0.01,0.29-0.02c0.1-0.01,0.2-0.01,0.29-0.02c0.1,0,0.2,0,0.29-0.01
				c0.1,0,0.2,0,0.3-0.01c0.1,0,0.2,0,0.3,0c0.1,0,0.2,0,0.3,0l0.07,0l0.07,0l0.15,0.01c0.19,0.01,0.39,0.02,0.58,0.03
				c0.1,0,0.19,0.01,0.29,0.02c0.1,0.01,0.19,0.02,0.29,0.03c0.39,0.03,0.78,0.09,1.17,0.14c0.78,0.12,1.57,0.27,2.34,0.48
				c0.1,0.02,0.19,0.05,0.29,0.07c0.1,0.02,0.19,0.05,0.29,0.08c0.19,0.06,0.38,0.11,0.58,0.17c0.19,0.06,0.38,0.12,0.57,0.19
				c0.1,0.03,0.19,0.06,0.29,0.1c0.09,0.03,0.19,0.07,0.28,0.1c0.19,0.07,0.38,0.14,0.57,0.21c0.19,0.08,0.37,0.15,0.56,0.23
				c0.19,0.07,0.37,0.16,0.56,0.24c0.09,0.04,0.19,0.08,0.28,0.12c0.09,0.04,0.19,0.08,0.28,0.13c0.18,0.09,0.37,0.17,0.55,0.26
				l0.14,0.07l0.14,0.07c0.09,0.05,0.18,0.09,0.27,0.14c0.36,0.18,0.72,0.38,1.07,0.57c0.18,0.1,0.35,0.2,0.53,0.3
				c0.09,0.05,0.18,0.1,0.26,0.15c0.09,0.05,0.17,0.11,0.26,0.16c0.17,0.11,0.35,0.21,0.52,0.32c0.17,0.11,0.34,0.22,0.51,0.33
				c0.09,0.06,0.17,0.11,0.26,0.17c0.08,0.06,0.17,0.11,0.25,0.17c0.17,0.11,0.34,0.23,0.51,0.34c0.33,0.23,0.67,0.47,1,0.71
				c0.55,0.4,1.09,0.81,1.62,1.23C39.41,9.45,39.53,9.32,39.59,9.16z"/>
		</g>
	</g>
</g>
</svg>
